<svg version="1.2" xmlns="http://www.w3.org/2000/svg" viewBox="0 0 180 180" width="180" height="180">
	<title>logo-square-white-svg</title>
	<style>
		.s0 { fill: none;stroke: #ffffff;stroke-width: 10 } 
		.s1 { fill: #ffffff } 
	</style>
	<path id="Layer" class="s0" d="m5 5h170v170h-170z"/>
	<path id="DND BASE" class="s1" aria-label="DND
BASE"  d="m66.7 52.1l-0.7 0.4q-0.8-0.6-0.8-0.8 0-0.1 0.1-0.1 1.4 0 1.4 0.5zm0 1.2q0 0.1-0.2 0.1h-0.1q-0.7-0.4-0.7-0.6 0 0 0.2 0 0.8 0 0.8 0.5zm0.8 14.3q0 4.1-2 7.7-0.6-0.4-0.9-0.4-0.2 0-0.4 0.1 0.5 0.9 0.5 1-0.1 0-0.2-0.1v0.6q-0.6 0-1.8 0.3-0.2 0.1-0.7 0.9-0.3 0.7-0.9 0.7-0.5 0-0.5-0.7l0.4 0.1q0.3 0 0.3-0.1 0-0.5-1.4-0.5l-0.2 1.2q0.2-0.2 0.4-0.2 0.1 0 0.1 0.1 0 0.4-1.5 0.7-1.1 0.2-2.4 0.6v0.3h-0.1q-0.2 0-0.7-0.1-0.3-0.2-0.5-0.2h-0.2v0.6l0.3-0.1h0.1q0 0-0.7 0.4-0.2-0.2-0.1-0.4 0-0.3 0-0.3 0-0.2-0.5-0.2l-0.3 0.6q0.1 0 0.1-0.1 0-0.2-0.7-0.2l0.6 0.6q-1 0-2.1 0-1.4-0.1-1.9-0.3 0 0 0-0.1 0 0 0.1 0 0.2 0 0.5-0.1 0.3-0.1 0.3-0.2 0-0.1-0.3-0.3-0.4-0.2-0.6-0.2v-0.3h0.6q1.3 0 3.1 0.3l0.3-0.6q-0.5-0.1-1-0.3 1.5 0 4.3 0v-0.9q-0.1-0.1-0.3-0.1 0 0 0.1 0.3 0 0.1-0.2 0.1l-0.2-0.1-0.9-0.9h-0.3q-0.4 0-1.2 0.4-0.8 0.3-1.2 0.3 0.1 0-1.8-0.5-0.6-0.1-0.7-0.2-0.3 0-1 0.1-0.7 0-1.1 0-0.5 0-0.9-0.1l-0.6-0.9h-0.3q-1.1 0-1.2 0.3 0.1 0 0.6 0v0.6q-0.3 0.1-0.5 0.1 0.1 0-1.4-0.4v0.7q-0.4 0-0.6-0.3-0.1-0.4-0.6-0.4 0 0.2-0.6 0.7l0.3 0.8-0.9 0.4q-0.1-0.1 0-0.4 0.1-0.4 0.1-0.5 0-1-7.4-0.7 0.1-0.9 0.3-2.7-0.3 0.1-0.6 0.1-0.3-0.1-0.9-0.1 0.4 1.5 0.4 1.4-0.2 0.4-0.7 0.7 0.1-1.5 0.1-3.2 0-2.2-0.2-6.7-0.2-4.6-0.2-6.8 0 0 0.6-0.1 0.4 0 0.4-0.3-0.1 0-0.3-0.1l-0.7-0.1v-3.4q0.3-0.1 0.5 0 0.3 0.1 0.4 0.1 0.1 0 0.5-0.4 0.5-0.3 0.5-0.5 0-0.3-0.7-0.7 0.3-0.2 0.9-0.3v-0.9q0.5-0.3 1.3-0.3 0.6 0 1.3 0h0.7l-0.6-0.6q-0.3-0.1-0.9-0.1-0.6 0-1.9 0.2-1.3 0.2-1.9 0.2h-0.1v-1.2h0.9q-0.1-0.3-0.7-0.3h-0.2v-9.8q-0.1 0.1 1 0.1l0.2-0.1 0.3-0.6 0.6-0.1-1.8 0.1q-0.3-0.4-0.3-0.6l0.3-0.3q1.1-0.1 2.1-0.1 1.4 0 4.2 0.2 2.9 0.2 4.3 0.2 2 0 6-0.1 4.1-0.1 6-0.1 1.1 0 1.7 0.2l0.3 0.6q0.3 0.1 0.9 0.1 0.7 0.1 1 0.2v0.9q0.3 0.2 0.8 0.1 0.7-0.1 0.8-0.1 0.7 0 0.8 0.9 0.4 0.2 1.2 0.7-0.2 0.1-0.2 0.7-0.1 0.3-0.1 0.8 0 0-0.6 0-0.5 0-0.5 0.1 0.1 0.2 0.5 0.5l0.3 0.9 0.9-0.3q0.1-0.1 0.3-0.9h0.6q0.5 0.5 1.3 1.5v0.9h0.5q0.2 0.4 0.1 0.9l-0.1 1.9h-0.5q-0.4-1-1-3.1-0.2 0-1.8-0.6v1.2l0.8-0.1 0.4 0.1q0.1 0.1 0.1 0.5 0 0.3 0.2 0.4l-0.3 1.2q-2-0.3-2.4-0.3-0.2 0-0.2 0.1 0 0.2 1.3 0.5 0.8 0.2 1.6 0.4l0.3 0.6q-0.2-0.2-0.3-0.2-0.3 0-0.3 0.7v0.1q0.5 0.1 1.2 0.6v0.6 0.3l1.2 0.9q-0.3 0.1-1.2 0 0 0.9-0.3 2.7 0.2 0 0.4 0 0.4 0.1 0.4 0.1 0.3 0 0.6-0.5 0.3-0.4 0.5-0.8 0.1 1.5 0.3 4.6-0.4-0.2-1.5-0.6l-0.4 1.2h0.4v0.6q0.7-0.1 0.7-0.2 0-0.1-0.2-0.1h0.7l0.3-0.9q0 1.2 0.4 3.7 0.4 2.4 0.4 3.8zm-19.2 11.3q-0.2 0.4-0.5 0.4-0.2-0.8-0.2-0.8 0-0.2 0.1-0.2 0.6 0 0.6 0.6zm0.1 1.9q-0.3 0-0.3 0.1-0.1 0 0 0.1 0 0.1 0 0.2v0.2q-1.9-0.2-5.8-0.9l-0.6 0.9q-0.5-0.3-0.5-0.5 0.1 0 0.2-0.1-0.2-0.1-0.6-0.3 0.2-0.5 0.9-1.5 0.3 0 1.7 0.3 1 0.3 1.6 0.3 0.7 0 1.3-0.3 1 0.3 2.1 1.5zm-13.1-2.7q-0.3 0.6-0.8 0.6-1.2 0-1.2-0.7 0.3-0.6 1-0.6 1 0 1 0.7zm2.8 3.3q-0.5 0-1.3 0.1-0.8 0-1.2 0-1.6 0-2-0.6-0.2-0.2-0.4-1.9h0.3q1 0 3.9 0.3 0 0 0.7 2.1zm20.2-38.4q-0.5-0.2-1.4-0.2l0.3 0.5q1.1 0 1.1-0.3zm-2.4-0.1l-0.5-0.1v-1h-0.6l-0.6 0.6q0.6 0.2 1.7 0.5zm6.5 8.7h0.6q-0.1-0.1-0.1-0.5 0-0.1-0.5-0.1zm-8.8-8.4q0-0.6-0.9-1.1l0.3 1.2q0.4 0.1 0.4 0.1 0.2 0 0.2-0.2zm7.9 8.6q0-0.1-0.3-0.2v-0.7h-0.9v0.7q0.2 0 0.5 0.1 0.4 0.2 0.6 0.2 0.1 0 0.1-0.1zm-5.3-5.9q0-0.5-1.1-1.7h-1.8q0.1 0.4 0.6 1.8h0.2q0.2 0 0.5 0.2 0.3 0.2 0.4 0.2h0.4v-0.6q0.4 0.2 0.7 0.2 0.1 0 0.1-0.1zm-2.9-0.4l-0.6-1h-3.7l0.6 1h0.2q0.4 0 0.4-0.3 0.4-0.2 0.9-0.2 0.4 0 1.1 0.3 0.8 0.1 1.1 0.2zm11.2 12.1h0.7q-0.7-0.2-1.6-0.3v-0.6q-0.8-0.2-2.1-0.3-1.5-0.1-2.1-0.3-0.1-0.2-0.1-0.6 0 0-0.2-0.3l-0.4 0.6 1.2 1.5q0.2 0.1 0.6 0 0.3 0 0.4 0 0.2 0 0.3 0-0.1 0.8 0.6 1.3 0.6 0.4 1.2 0.8 0.1-0.7 0.2-0.8 0.1 0 0.8 0 0.2 0 0.2 0zm-5.3-3.2q0-0.2-0.3-0.7-0.2-0.4-0.5-0.4h-0.3l0.3 1.2q0.5 0.2 0.5 0.2 0.3 0 0.3-0.3zm-11.8-11.8q0-0.4-2.4-1.8 0.2 0 0.2 0.2 0 0.3-0.4 1 0 0 1.5 0v0.7q0.5 0 0.7 0 0.4 0 0.4-0.1zm1.6 3.1q-1-0.2-1-0.7 0-0.2 0.1-0.8h-0.6q-0.2 0-0.3 0v-0.7q-0.6 0-0.9-0.3 0.3 0.8 0.9 2.2h0.9v0.6h0.2q0.3 0 0.7-0.3zm17.6 18.7q-0.3-0.4-0.8-0.5v0.6l0.4 0.1q0.4 0 0.4-0.2zm-23.4-23.6q-0.6-0.2-2.1-0.9v0.2q0 0.8 1 0.8 0.6 0 1.1-0.1zm0.6 1.2q-0.3-0.3-0.9-0.3v0.6q0.9 0 0.9-0.3zm2.5 4.3q-0.6-0.7-1.3-1.3-0.7-0.8-1.5-0.8-0.8 0-0.8 0.8 0.2 0.5 0.8 0.4v0.6q0.2 0.1 0.3 0.1 0.2 0 0.5-0.2 0.3-0.2 0.5-0.2 1 0.5 1.5 0.6zm-4.1-4q0-0.3-1.4-0.3-0.5 0.4-0.5 0.7 0 0 0.2 0 0.6 0 0.6-0.3h-0.5q0.2 0 1.4 0 0.1 0 0.2-0.1zm0.7 0.9q-0.5 0-1.5-0.3 0.7 1 1.3 1 0.1 0 0.2-0.7zm23.8 24.4q-0.7-0.6-0.9-0.6l-0.3 0.6 0.5 0.3q-0.1 0-0.1-0.1 0-0.2 0.8-0.2zm-0.9-1.2q-0.8-0.3-2.2-0.9l1.2 1.5q0.3 0.1 0.4 0.1 0.2 0 0.3-0.3 0.2-0.4 0.3-0.4zm-5.2-4.2q0 0-0.1-0.1-0.2 0-0.2 0-1.9-0.3-2.8-0.3h0.1q0 0.1-0.7 0.6l0.3 0.6q0 0 2.2 0l-0.3-0.6q0.4 0 1.2-0.1 0.3 0 0.3-0.1zm-21.9-19q-0.2-0.5-1-0.5l0.4 0.8 0.2 0.1q0.4 0 0.4-0.4zm26.3 27.4q-0.1-0.3-0.6-0.3-0.4 0-0.4 0.2 0 0 0.8 0.5 0.2-0.3 0.2-0.4zm-28-27.2q0-0.3-1.4-1.3-0.9-0.7-1.8-1.3l0.3 1.5q0.2 0.1 0.5 0.1 0.5-0.1 0.5-0.1 0.2 0 0.7 0.6 0.4 0.6 1.1 0.6 0.1 0 0.1-0.1zm0.1 1.1h0.6q0-0.1 0-0.5 0-0.1-0.6-0.1zm26.1 18.3l1-0.1q-0.7-0.6-2.4-1.8v-0.3q0.2 0 0.3-0.2 0.2-0.3 0.2-0.5-0.2-0.5-0.8-0.5v-0.9q-0.8 0.3-2.4 0.9 0-0.6-0.4-1.5v-1q0 0-1.8 0 0 0 0-1.5l-0.2 0.1q-0.2 0-0.1-0.2l0.3-0.8h0.3q0.2 0 0.4 0.2 0.2 0.1 0.3 0.1h0.2v-0.6q-0.1 0-1.5-0.3l-0.3-1.5q0.5-0.2 0.7-0.2 0.1 0-0.1 0.2h1q0.1 0.1 0.4 0.3 0.3 0.2 0.4 0.3l-0.3-0.9q-0.2-0.2-0.8-0.3-0.6-0.1-0.6-0.2 0.4-0.3 1.1-1h-0.7q-0.6 0-0.6-0.1 0.2-0.2 0.7-0.2v-1.1-0.4l-1.2-0.4q-0.1 0.4-0.6 1.6 0.5 0 0.5 0.8 0 0.5-0.2 1-0.2-0.3-0.7-1.4-0.5-1.1-0.8-1.4-1.9-1.4-6.1-1.6-5.5-0.3-6.4-0.5 0.2 0.1 0.2 0.4h0.2l0.5 0.2q0.1 2 0.2 4 0 2.3 0.4 3.9 0 0-0.4 0-0.2 0-0.2 0.3h0.6v1l-0.6 0.2h0.6q0 0.3 0.1 1 0.1 0.6 0.1 0.9 0 0-0.2 0.9-0.6 0.4-0.6 0.6 0 0 0 0h0.6v13.4h1q4 0 5.8-0.6 0.6-0.5 2.1-1.2 0.4 0 0.6 0 0.1 0 0.3 0l1.5-1.8h0.6q0.3-0.5 0.4-1.4 0.1-1 0.2-1.4l0.6-0.3 0.1-0.4q0-0.6-0.2-1.8-0.2-1.3-0.2-1.8v-0.3l0.6-0.6q0.1-0.2 0.3-3 0.1 0.1 0.9 0.3v0.6q-0.2 0-0.2 0.2 0 0.4 0.5 0.4 0 0 0-0.2 0-0.3 0.3-0.4 0.2 0.5 0.7 1.2 0.3 0.4 1.4 0.4 1.2 0 1.6 0.2l0.3 0.9q0.3 0.1 0.5 0.1zm0 7.7q-0.3-0.4-0.8-0.4v0.5l0.4 0.1q0.4 0 0.4-0.2zm-24.8-24.5q-0.2-0.1-0.7-0.9h-0.8q0.1 0.1 0.4 0.7 0.4 0.6 0.7 0.6 0.3 0 0.4-0.4zm0.3 2.4h0.6q-0.1 0-0.1-0.4 0-0.2-0.5-0.2zm3.3 1.6q0 0 0-1.9 0 0-0.4 0 0.1 0-0.2-0.3l-0.3-0.2h0.2q0 0 0-0.1 0-0.4-0.2-0.9-0.1 0-0.3 0h-0.6q0.1 0.3 0.3 1l-0.3 0.5q0 0 0.4 0 0.2 0 0.2 0.3-0.4 0.1-0.6 0.7-0.2 0-0.7 0-0.8 0-3.3-0.3 0.4 0.3 1.5 2.1 0.6-0.2 1.6-0.6l-0.3-0.6 0.4-0.1q0.7 0 1.4 0.6 0.8 0.7 0.9 0.7 0.2 0 0.2-0.2 0 0 0-0.2-0.1-0.2-0.1-0.3 0-0.2 0.2-0.2zm-5.3-2.2q-0.1-0.3-0.6-0.3-0.4 0.1-0.4 0.1 0 0.3 0.8 0.5 0.2-0.1 0.2-0.3zm22.1 22.6q0-0.3-0.9-0.3l0.8 0.6q0.1-0.1 0.1-0.3zm-23.1-22.7q-0.3-0.4-1-0.5l0.3 0.6 0.3 0.1q0.4 0 0.4-0.2zm26.7 27.5l0.1-0.2q0-0.4-0.7-0.4-0.5 0-0.5 0.1 0 0.2 1.1 0.5zm-19.5-18.6q0-0.2-1.5-1.2l0.6 1.6q0.9 0 0.9-0.4zm-1.4-1.8q0-0.3-0.7-0.7-0.5-0.3-0.9-0.3-0.2 0-0.7 0.1-0.3 0-0.5 0 0.5 0.4 1 0.7 0.6 0.3 1.5 0.3 0.3 0 0.3-0.1zm-5.9-3.7q-0.2-0.3-0.6-0.5v0.6h0.3q0.3 0 0.3-0.1zm23.6 26.9q-0.3-0.5-1.1-0.6l0.3 0.9h0.3q0.5 0 0.5-0.3zm-19.8-16.1l0.1-0.1q-0.2-0.1-1.1-0.6v0.6zm14.3 14q0-0.3-0.5-0.3-0.4 0-0.4 0.1 0 0.1 0.8 0.5 0.1-0.1 0.1-0.3zm-0.7-1q-0.3-0.3-1.2-0.5v-0.6l-0.3-0.1q-1 0-1 0.1 0 0 0 0.5 0 0.1-0.3 0.1-0.4-0.6-0.9-0.6 0.1 0 0.1 0.1 0 0.2-0.4 0.8 0.3 0 0.9 0.2 0.6 0.1 0.8 0.1h0.4q0.2-0.6 0.7-0.6 1 0.5 1.2 0.5zm-15.5-12.8q-0.1-0.2-0.4-0.2-0.3 0-0.8 0.4-0.3 0.4-0.4 0.7 0.1 0.1 0.4 0.1 0.4 0 0.8-0.3 0.4-0.3 0.4-0.7zm-2 1.3q-0.1-0.3-0.5-0.3l-0.3 0.6q0.8-0.2 0.8-0.3zm6.8 7.3q-0.2-0.3-0.7-0.3h-0.2v0.3q-0.1 0.1-0.2 0.1-0.1 0-0.1 0h0.1q0.6 0 1.1-0.1zm-1.2 1.2l-0.3-0.9h-0.9l0.3 1.3q-0.6 0-0.6 0.1 0.5 0.3 0.9 0.5 0 0 0.2-0.6 0-0.2 0.4-0.4zm-0.6 4.6q-0.1-0.1-0.1-0.5 0-0.1-0.2-0.1-0.7 0-0.7 0.2 0.4 0.2 1 0.4zm-2.8-1.8h0.7q-0.2-0.1-0.2-0.5 0-0.1-0.5-0.1zm17.6-29.4l-0.2 0.4q-0.7-0.2-0.7-0.4 0.2-0.2 0.7-0.2 0.2 0 0.2 0.2zm2.2 12.6l0.2 0.1q-0.2 0.2-0.5 0.2l0.3 0.6h-0.6q0 0.4 0-0.9 0-0.6 0.3-0.6zm48.3-2.9v0.6q-0.9-0.2-4.8-1.2l0.3 0.6q-0.6-0.1-0.9-0.6h-0.1q-0.6 0-0.7 0.6l-0.4 0.1q-0.4 0-1-0.3-1-0.4-1-0.4 0.2 0.1 0.1 0.4 0 0.2 0.3 0.2h0.2q-0.1 0.1-0.2 0.4-0.1 0.3-0.5 0.3l-0.2-0.1q-0.2-1.7-0.2-3.4 0-1.9 0.2-3.7 1.1 0.9 1.4 0.9h0.1q0.4-0.9 0.9-0.9 0 0 0 0.2 0 0.2-0.3 1 0.6-0.1 1.1 0 0.1-0.1 0.1-0.5 0-0.2 0.3-0.8 0.4-0.7 0.5-0.7 0.1 0.1 0.3 0.1 0.2 0 0.6-0.2-0.2-0.2-0.9-0.3l0.3-1.1q-0.1-0.1-0.4-0.1-0.3 0-0.7 0.1-0.5 0.2-0.6 0.3 0.3-0.7 0.3-0.8 0-0.1-0.2-0.1-0.3 0-0.9 0.1-0.5 0.2-0.7 0.2l-0.3-0.9-0.3-0.1q-0.2 0-0.5 0.2-0.2 0.2-0.3 0.2h-0.1q0.1-0.5 0.3-1.2h0.9v-0.9l0.6-0.3 0.3-0.6q1.1 0.4 1.1 0.4 0.2 0 0.3-0.1l0.3-0.6q-0.5-0.3-2.3-0.9v0.6l-0.3 0.1q-0.1 0-0.4-0.3-0.2-0.2-0.5-0.1 0.7-0.4 1.4-0.7 0.9-0.5 1.5-0.5 0.8 0 1.1 0.7 0.4 0.6 0.9 0.6 0.6 0 0.7-0.7h-1.2q0.8 0 0.9-0.2-0.2-0.2-0.9-0.4-0.1 0 1.4 0 0.3 0 0.4 0 0.4 0.7 0.9 0.9 0.3-0.4 0.9-0.9v3q-2.1 1-3.6 2.1 0.7-0.1 2-0.1 0.3 0 0.6-0.1 0-0.1-0.9-0.1-0.1 0-0.1-0.1 0 0 0.4-0.3 0.4-0.3 0.4-0.5l-1.2 0.6q1.1-0.3 3-0.9 0 0.2-0.1 0.3 0 0-0.1 0-0.2 0-0.3 0h-0.1q0.2 0.7 0.6 4.7-0.7 0.3-0.7 0.3 0 0 0.1 0 1.1 0.4 0.6 5.6zm-6.2-6.7l-0.3 0.2q-0.4-0.5-0.4-0.7 0-0.2 0.2-0.2 0.5 0 0.5 0.7zm-2.2-1.1l-0.2 0.4q-0.7-0.1-0.7-0.3 0.2-0.3 0.7-0.3 0.2 0 0.2 0.2zm8.4 8.7v1.8q-0.6-0.1-1.7-0.1-1.1 0.1-0.7 0.1h-0.3v-0.9q-0.3-0.1-1.1-0.5-0.8-0.4-0.8-0.6 0-0.1 1.2-0.1 1.1 0 3.4 0.3zm0.3 24.6q-1 0-3 0.1-2 0.2-3 0.2-2.1 0-2.8-0.7-0.5-0.4-0.8-1.6-0.4-1.6-1.1-2.5l-1.2-0.6q-0.1-0.5-0.6-1.7h-0.3v-0.3q0-1.1 0-0.9 0 0 1.5 0v-0.6q-0.7 0.2-2 0.6-0.8-1.5-1.8-3.3-0.4-0.1-0.7-0.1-0.4-0.1-0.4-0.9 0-0.4-0.1-0.7h-0.1q-0.1 0-0.1 0 0-0.1 0.6-0.2 0.6-0.2 0.8-0.1h0.3v0.6q0.8-0.2 0.8-0.5-0.1-0.1-0.2-0.1-1.2-0.7-1.4-0.7-0.5 0-1.6 0.4-0.3-0.5-0.7-1.5-0.4-1-0.8-1.5l-0.6-0.3q0.1 0.2 0.1-0.6 0-0.2-0.1-0.3h-0.5q-1.4-2.5-5-8.6l0.9 0.1 0.5-0.1v-0.5h-0.5-0.9v0.5l-0.7-1.1h-0.6q0 9.4 0.9 14.8l-0.3 1.4-0.9-0.6q0.3 0.5 0.9 1.2h0.3v3.6q-1.1 0.3-1.1 0.4 0 0.1 0.2 0.2 1 0.3 1 1.7l-0.1 1.5q-1.7-0.8-1.7-0.8-0.1 0-0.1 0.1 0 0.3 0.5 0.7 0.6 0.3 0.6 0.3h-0.7-0.1q-1.1-0.1-3.5-0.6l0.3 1.2q-0.9 0-1.5 0.3 1.4-0.3 3-0.3 1.5 0 3.6 0.3l-0.1 1.8 0.1 0.9q-1.8 0-8.1 0.3 0-0.1-0.6-0.7-0.5-0.3-0.5-1.4 0-1.1 1-1.5 1-0.3 1.9-0.6 0.3 0 0.3-0.1 0-0.2-0.6-0.2 0.1 0 0.1 0h-0.1l-0.5-0.1-1.9 0.1q0 0.1 0-1.4 0-0.2 0-0.4h0.3q0.3-0.4 0.6-1.1h0.6q-0.5-0.2-1.7-0.6 0-0.9 0.1-2.5 0.1-1.5 0.1-2.3 0-1.1-0.2-2 0.2 0 0.3-0.3 0.2-0.3 0.2-0.3 0.7 0.2 1.8 0.6v0.6q0.3 0.1 0.7 0 0.6-0.1 0.7-0.1 0.5 0 0.9 0.8 0.4 0.7 0.9 0.7 0.2 0 0.8-0.1 0.6-0.2 0.6-0.3 0-0.2-1.9-0.7v-0.6q-0.2-0.2-0.9 0v-1.2q-0.4-0.3-1.3-0.3-0.5-0.1-1.5 0-1.2 0-1.3 0-0.1-2-0.3-3.6h-0.6q-0.2-0.9-0.2-2.3 0-0.8 0-2.4 0.2-1.6 0.2-2.4 0.7 0 0.7-0.3 0-0.1-0.6-0.6-0.5-0.5-0.5-1 0-0.2 0.1-0.4h0.9q0.3-0.9 0.8-2.7-0.8-0.4-1.7-1.2-0.4-0.9-0.4-5.2l0.1-3.6h0.9q0.1 0.3 0.2 0.6 0.2 0.5 0.4 0.5 0.7 0 0.7-0.1 0-0.1-0.2-0.2l0.3 0.1q0 0 0-0.1 0-0.3-0.6-0.3 0 0 0-0.5 0 0 0.3 0 0.3 0 1.2 0.5 0.9 0.6 1.4 0.6h0.1l-0.6-1.1q3.3-0.3 2.8-0.3 0.7 0 1.9 0.1 1.3 0.2 1.9 0.2-0.1 0.4 0.2 1.1-0.4-0.3-0.8-0.6-0.6-0.3-1-0.3-0.3 0-0.4 0.3 0 0.3-0.4 0.3v0.6q0.5 0.2 1.3 0.2 1 0 1.3 0.1 0-0.1 0-0.2 0-0.2 0-0.2 0-0.2 0.2-0.2h0.1l-0.3 1.5q0.2 0.1 0.3 0.1 0.2 0 0.3-0.2 0.2-0.1 0.3-0.2 0.2 0.3 0.4 0.9 0.3 0.6 0.5 0.9h0.6q0.5 1.6 1.5 3.5 0.3 0 0.9 0.3 0.3 0.5 0.6 1.5 0.4 1.1 0.5 1.5-0.1 0-0.4-0.1-0.4-0.2-0.6-0.2h-0.1l-0.3 0.6q0.2 0-2.2 0h-0.5l-0.3 0.6q-0.1 0 0.8 0 0.4 0 0.1 0.9-0.1 0 0.8 0h0.1l0.6-0.9q0.4-0.3 2.3-0.3h0.7q0 0.2 0.1 0.6 0.1 0.5 0.1 0.7-0.2 0.3-0.9 0.8h0.6 0.1q0.2-0.1 0.3-0.1 0.4 0 0.4 0.2 0 0.1-0.1 0.2-0.1 0.2-0.1 0.3l-2.4-0.3-0.2 0.5q1.8 0.5 1.7 0.5 0.1 0 1.8-0.7 1.1 1.5 1.1 2.2 0 0.4-0.2 1.6 0.3-0.4 0.9-1.5 0.1 0.2 0 0.4-0.1 0.3-0.1 0.4 0 0.3 0.5 0.3 0.4 0.1 0.5 0.1 0.3 0.2 0.3 1 0.1 0.9 0.2 1.1 0.1 0.1 0.5 0.3 0.4 0.1 0.4 0.3 0.1 0.1 0.1 0.3-0.1 0.4-0.1 0.4v0.2h0.6q0.4 0.5 0.9 1.8 0.6 1.1 0.9 1.7 0.3-0.2 1.2-0.3l-0.3-0.6q0.1 0.1 0.3 0.1 0-0.4 0-0.4 0 0.1-0.1 0.1l-0.2-0.7v-0.1q0-1.4-0.3-2.5h0.3l-0.3-0.3v-1.2q0.3-0.1 1.5-0.3-0.1 0-0.1-0.2 0.1-0.2 0-0.2 0 0 0 0-0.1 0-0.2 0.1-0.3-0.2-1.2-0.3v-1.8q0.4 0.2 0.4 0.4 0 0.1-0.1 0.2 0.6-0.2 1.2-0.5 0.6-0.2 1.2-0.2 0.5 0 0.8 0.1v0.9q3.1 1.3 5.4 1.5 0.3 3.8 0.3 9.7h-0.1q-0.1 0-0.4 0.2-0.3 0.2-0.5 0.2-0.3 0-0.6-0.3-0.2-0.3-0.6-0.3h-0.2q-1.2 0.8-1.4 0.8-0.3 0-0.6-0.1-0.3-0.2-0.5-0.2h-0.2v0.6q-0.3 0.1-0.7 0-0.7-0.1-0.8-0.1-0.2 0-0.5 0.1l-0.3 0.6-0.1 0.1q-0.2 0-0.3-0.2-0.1-0.2-0.3-0.2h-0.2q0 0.2 0.2 0.3 0.2 0.1 0.4 0l-0.6 0.6 0.3 0.6q1.1-0.2 3.2-0.9 0 0 1.2-0.8 0.5-0.4 1.5-0.4-0.3 0 2.1 0.3 0 0 0 7.1-0.2 0-0.4-0.3-0.2-0.3-0.6-0.3-0.5 0-1.4 0.5-0.9 0.5-1.4 0.5v-0.1-1.2l-1.1 0.1-0.8-0.1v0.6q0.6 0 0.8 0 0.3 0 0.3 0 0 0.3-1.3 0.6l-0.3-0.9h-0.6-1.2v0.6q-0.3 0.2-1.1 0.4l0.4-0.1q0.6 0 1 0.3l-0.3 1.2q0.3 0 0.9 0 0.6 0.1 0.8 0.1 0.4 0 0.6-0.1l0.9-1.5h0.6q-0.2 0.4-0.2 0.7 0 0.3 0.2 0.2-0.1 0.9-0.3 2.7h0.7q0-0.8 0.2-2.4l0.9-0.3q-0.3 0-0.3-0.1 0-0.3 0.9-0.5l-0.3 0.6q0.8 0 2.4-0.3-0.2 1.2-0.2 2.4 0 0.6 0.2 1.2zm-34.3-30.8q-1-0.3-1-0.5 0-0.1 0.2-0.1 0.4 0 0.5 0.3 0.1 0.2 0.3 0.3zm32.3-8.3q-0.2-0.1-0.3-0.1-0.1 0-0.4 0.1-0.9 1.4-0.9 1.8 0 0.2 0.2 0.2 0.1 0 0.2-0.1 0.2-0.1 0.2-0.1 0.5-0.7 1-1.8zm0.8 9q-0.1-0.1-0.3-0.2l-1.2-0.5v0.6q0.3 0 0.7 0 0.5 0.1 0.7 0.1 0.1 0 0.1 0zm0.5 2.9q0-0.2-2.3-1.5-0.1-0.2-0.3-0.8 0-0.5-0.3-0.7-0.3-0.2-1-0.4-0.9-0.1-1.1-0.2l-0.2 0.6q0.4 0 1.1 0.3 0.3 0.1 0.5 0.8 0.3 0.6 0.5 0.7l2 0.9q0.9 0.3 1.1 0.3zm-5.6 3.8q-0.2-0.3-0.7-0.3-0.4 0-0.4 0.2 0 0.2 0.9 0.7 0.1-0.2 0.2-0.6zm4.1 6.5q0-0.4-0.8-0.6v0.6l0.5 0.1q0.3 0 0.3-0.1zm-2.8-3.1q0-0.2-0.1-0.2-0.5 0-0.5 0.3 0 0.4 0.5 0.4 0.1 0.1 0.1-0.5zm-1.1 6.4q-0.3-0.5-1-0.6l0.3 0.9h0.2q0.5 0 0.5-0.3zm-1.4-1.1q-0.3-0.4-0.8-0.4v0.6h0.4q0.4 0 0.4-0.2zm-8.5-8.3q-0.2-0.2-0.3-0.2-0.6 0-0.6 0.4 0 0.1 0.6 0.3 0.3-0.5 0.3-0.5zm4.3 4.8q-0.2-0.2-0.8-0.2l-0.3 0.6q1.1 0 1.1-0.4zm-1.1 1.3h0.6q0 0 0-0.4 0-0.2-0.6-0.2zm-9.7-9.6l1.8 0.5q-0.1-0.6-1.1-0.6-0.7 0-0.7 0.1zm6.2 5.2q0-0.6-0.6-0.9 0 0 0 1.5h-0.6v0.9h0.9q0-0.2 0.2-0.7 0.1-0.6 0.1-0.8zm-8.5-7.9v-0.1q0-0.1-0.4-0.3l-0.3-0.6h-0.9l0.3 0.6q0.7 0.4 1.3 0.4zm21 20.7q0-0.2 0-0.7-1-0.1-2.7-0.3v0.6h1.4 0.6l-0.3 0.9h0.2q0.8 0 0.8-0.5zm-5.7-4.7q-0.1-0.2-0.4-0.2-0.7 0-0.7 0.7 0.2 0.3 0.6 0.3h0.2q0.3-0.5 0.3-0.8zm-18.1-17q0-0.1-0.3-0.3-0.3-0.3-0.4-0.3h-0.1l-0.6 0.6q0 0 1.2 0 0.2 0 0.2 0zm14.7 14.7q-0.1-0.2-0.4-0.2-0.5 0-0.5 0.1 0 0.1 0.5 0.5 0.4 0 0.4-0.4zm-1.1-1.1q0 0-0.5-0.1-0.5-0.1-0.6-0.2l0.3 1.2q0.5-0.2 0.5-0.2v-0.1q0-0.1 0.1-0.3 0.2-0.2 0.2-0.3zm8.6 9.2q0 0 0-0.5 0-0.1-0.3-0.1h-0.2v0.3q-0.9-0.4-1.1-0.7-0.2-0.1-0.4-1.1-1.1 0.9-1.1 1.1 0 0 0.2 0.1l0.3 0.9q2.6 0 2.6 0zm-7.1-5.6q-0.1-0.3-0.7-0.3-0.3 0-0.3 0.1 0 0.3 0.7 0.8 0.3-0.4 0.3-0.6zm-17-17.3l-1.9-0.2v0.6q0.5-0.1 1.6-0.3 0.3 0 0.3-0.1zm20.3 21.7q-0.4-0.6-0.4-0.9 0-0.2 0.1-0.3h-0.9q0.2 0.2 0 1.5 0.1-0.1 1.2-0.3zm6.2 6.2l0.3 0.6q0 0 0-0.5 0-0.1-0.3-0.1zm-5.4-5q-0.1 0-0.3 0-0.3 0-0.9 0.3-0.6 0.3-0.6 0.6 0.1 0.1 0.4 0.1 0.2 0 0.6-0.1 0.8-0.6 0.8-0.9zm-23.8-22.5q0-0.3-0.5-0.3-0.4 0-0.4 0.1 0 0.1 0.8 0.5 0.1-0.1 0.1-0.3zm5.5 6.4q0-0.4-0.5-1.4h-0.9q0 0 0.5 1 0.3 0.6 0.7 0.6 0.2 0 0.2-0.2zm-0.4-4.3q0-0.1-0.1-0.3-0.7-0.3-3.6-0.3 0.2 0.8 0.2 1.6 0 0.4-0.2 0.8-0.3-0.3-0.7-0.7 0.1-0.1 0.4 0.1v-0.6q-0.3-0.1-0.4-0.1-0.8 0-1.4 0.7-0.6-0.2-1.7-0.6v0.3l0.3 0.3q0.5 0.2 3.1 0.8 2.6 0.6 3 0.6h0.1l0.9-0.8q0 0-1.5 0v-0.6q0.5-0.1 1.5-0.3 0.1-0.4 0.1-0.9zm-5 0h1v-0.6q-1.1-0.1-2.9-0.3 1.3 1 1.9 0.9zm22.3 21.7q-0.1-0.2-0.3-0.2l-0.3 0.1v0.6q-0.8 0-0.8 0.2 0.3 0.1 0.5 0.1 0.3 0 0.6-0.3 0.3-0.2 0.3-0.5zm-18.6-16.9q0-0.1-0.3-0.1l0.3 0.6q0 0.2 0-0.5zm2 15.9q-0.4-0.1-1.4-0.3l0.3 0.6h0.2q0.4 0 0.9-0.3zm-4.7-3.3q-0.1-0.1-0.1-0.3 0.1-0.4 0.1-0.4 0-0.2-0.4-0.2h-0.2l-0.2 0.6q0.5 0.2 0.8 0.3zm1.5 5.7q0 0 0-0.1-0.1-0.3-0.4-0.3l-0.2 0.1v0.5q-0.8 0-0.8 0.4l0.5 0.2q0.9-0.3 0.9-0.8zm0.1-22.3q0 0.2-0.4 0.4v-0.4q0-0.3 0.1-0.3 0.3 0 0.3 0.3zm67.3-1.4l-0.7 0.4q-0.8-0.7-0.8-0.9 0 0 0.1 0 1.4 0 1.4 0.5zm-0.1 1.2q0 0.1-0.2 0.1h-0.1q-0.6-0.5-0.6-0.6 0-0.1 0.2-0.1 0.7 0 0.7 0.6zm0.9 14.3q0 4-2.1 7.7-0.5-0.4-0.8-0.4-0.2 0-0.4 0.1 0.5 0.8 0.5 1-0.1 0-0.2-0.1v0.6q-0.6 0-1.8 0.3-0.2 0.1-0.7 0.9-0.4 0.7-1 0.7-0.5 0-0.5-0.7l0.4 0.1q0.3 0 0.3-0.2 0-0.5-1.3-0.5l-0.3 1.3q0.2-0.2 0.4-0.2 0.2 0 0.2 0.1 0 0.3-1.5 0.6-1.1 0.3-2.4 0.7v0.3h-0.2q-0.2 0-0.6-0.2-0.4-0.2-0.6-0.2l-0.2 0.1v0.6l0.4-0.1q0 0-0.6 0.4-0.3-0.2-0.2-0.4 0.1-0.4 0.1-0.4 0-0.1-0.6-0.1l-0.3 0.6q0.2 0 0.2-0.1 0-0.2-0.8-0.2l0.6 0.6q-1 0-2 0-1.4-0.1-1.9-0.3 0 0-0.1-0.1 0 0 0.2 0 0.1-0.1 0.4-0.1 0.4-0.1 0.4-0.2 0-0.1-0.4-0.4-0.3-0.2-0.5-0.2v-0.3h0.6q1.3 0 3 0.3l0.3-0.6q-0.4 0-0.9-0.2 1.4 0 4.3 0v-1q-0.2-0.1-0.3-0.1 0 0 0 0.3 0 0.2-0.1 0.2l-0.2-0.1-0.9-0.9h-0.3q-0.5 0-1.3 0.3-0.8 0.3-1.2 0.3 0.1 0-1.8-0.4-0.5-0.2-0.6-0.2-0.4 0-1.1 0.1-0.7 0-1 0-0.5 0-1-0.1l-0.5-0.9h-0.3q-1.1 0-1.2 0.3 0.1 0 0.5 0v0.6q-0.2 0.1-0.4 0.1 0.1 0-1.4-0.4v0.6q-0.4 0-0.6-0.3-0.2-0.3-0.6-0.3-0.1 0.2-0.6 0.6l0.3 0.9-1 0.4q0-0.1 0-0.4 0.2-0.4 0.2-0.5 0-1-7.5-0.7 0.2-0.9 0.4-2.7-0.3 0.1-0.7 0.1-0.2-0.1-0.9-0.1 0.4 1.5 0.4 1.4-0.1 0.4-0.7 0.7 0.2-1.5 0.2-3.2 0-2.2-0.3-6.7-0.2-4.6-0.2-6.8 0.1 0 0.7-0.1 0.3-0.1 0.3-0.3 0 0-0.3-0.1l-0.7-0.1v-3.4q0.4-0.1 0.5 0 0.4 0 0.4 0 0.2 0 0.6-0.3 0.5-0.4 0.5-0.5 0-0.4-0.7-0.7 0.2-0.2 0.9-0.3v-0.9q0.5-0.3 1.2-0.3 0.7 0 1.4 0h0.7l-0.6-0.7q-0.3 0-0.9 0-0.6 0-1.9 0.2-1.3 0.1-2 0.1h-0.1v-1.2h1q-0.1-0.2-0.8-0.2l-0.2-0.1v-9.7q0 0 1 0h0.3l0.2-0.6 0.6-0.1-1.8 0.1q-0.3-0.4-0.3-0.7l0.3-0.2q1.1-0.2 2.2-0.2 1.4 0 4.2 0.3 2.9 0.2 4.3 0.2 2 0 6-0.1 4-0.1 6-0.1 1 0 1.7 0.2l0.3 0.6q0.3 0.1 0.9 0.1 0.6 0.1 0.9 0.2v0.9q0.4 0.1 0.9 0.1 0.7-0.2 0.8-0.2 0.7 0 0.8 1 0.4 0.2 1.2 0.6-0.2 0.2-0.3 0.7 0 0.4-0.1 0.8 0 0-0.5 0.1-0.6 0-0.6 0.1 0.1 0.2 0.6 0.5l0.3 0.9 0.9-0.3q0.1-0.1 0.3-1h0.6q0.5 0.5 1.2 1.6v0.9h0.6q0.1 0.3 0.1 0.9l-0.1 1.8h-0.6q-0.3-1-0.9-3-0.2-0.1-1.9-0.6v1.2l0.8-0.1 0.5 0.1q0.1 0 0.1 0.4 0 0.4 0.2 0.5l-0.3 1.2q-2-0.3-2.5-0.3-0.2-0.1-0.2 0.1 0 0.2 1.4 0.5 0.8 0.2 1.6 0.3l0.3 0.6q-0.3-0.1-0.3-0.1-0.3 0-0.3 0.7v0.1q0.5 0.1 1.2 0.5l-0.1 0.7 0.1 0.3 1.2 0.9q-0.3 0.1-1.2 0 0 0.9-0.3 2.7 0.2-0.1 0.4 0 0.3 0.1 0.4 0.1 0.2 0 0.6-0.5 0.2-0.4 0.4-0.8 0.2 1.5 0.3 4.6-0.3-0.3-1.5-0.6l-0.3 1.2h0.3v0.6q0.8-0.1 0.8-0.3-0.1 0-0.2 0h0.6l0.3-0.9q0.1 1.2 0.5 3.7 0.4 2.4 0.4 3.8zm-19.2 11.3q-0.2 0.3-0.5 0.3-0.3-0.7-0.3-0.8 0-0.1 0.1-0.1 0.7 0 0.7 0.6zm0.1 1.9q-0.3 0-0.4 0 0 0.1 0 0.2 0.1 0.1 0.1 0.2v0.2q-2-0.2-5.8-0.9l-0.6 0.9q-0.5-0.3-0.5-0.5 0-0.1 0.1-0.1-0.1-0.1-0.5-0.3 0.2-0.6 0.9-1.6 0.2 0.1 1.7 0.4 1 0.3 1.6 0.3 0.6 0 1.2-0.4 1.1 0.3 2.2 1.6zm-13.2-2.7q-0.2 0.5-0.7 0.5-1.3 0-1.3-0.7 0.3-0.5 1.1-0.5 0.9 0 0.9 0.7zm2.8 3.3q-0.4 0-1.2 0.1-0.9 0-1.2 0-1.6 0-2.1-0.6-0.1-0.2-0.3-2h0.3q1 0 3.9 0.3 0 0 0.6 2.2zm20.3-38.4q-0.5-0.3-1.4-0.3l0.3 0.6q1.1 0 1.1-0.3zm-2.5-0.1l-0.4-0.2v-0.9h-0.7l-0.5 0.6q0.5 0.2 1.6 0.5zm6.5 8.7h0.7q-0.1-0.1-0.1-0.5 0-0.2-0.6-0.2zm-8.7-8.3q0-0.7-1-1.1l0.3 1.2q0.4 0.1 0.5 0.1 0.2 0 0.2-0.2zm7.9 8.6q0-0.1-0.4-0.3v-0.6h-0.9v0.6q0.2 0 0.6 0.2 0.4 0.2 0.6 0.2 0.1 0 0.1-0.1zm-5.3-5.9q0-0.5-1.2-1.7h-1.8q0.2 0.4 0.6 1.8h0.3q0.1 0 0.4 0.2 0.3 0.2 0.5 0.2h0.4v-0.7q0.4 0.3 0.6 0.3 0.2 0 0.2-0.1zm-3-0.5l-0.6-0.9h-3.6l0.6 0.9h0.1q0.5 0 0.5-0.3 0.4-0.1 0.9-0.1 0.4 0 1.1 0.2 0.7 0.2 1 0.2zm11.3 12.2h0.6q-0.7-0.2-1.5-0.3v-0.6q-0.8-0.2-2.1-0.3-1.5-0.1-2.2-0.3 0-0.2 0-0.6 0-0.1-0.3-0.3l-0.3 0.6 1.2 1.5q0.2 0.1 0.5 0 0.4-0.1 0.5-0.1 0.1 0 0.2 0.1 0 0.8 0.6 1.3 0.6 0.4 1.3 0.8 0-0.7 0.1-0.8 0.2-0.1 0.8-0.1 0.3 0 0.3 0zm-5.3-3.1q0-0.3-0.3-0.7-0.2-0.4-0.5-0.4h-0.3l0.3 1.2q0.4 0.2 0.5 0.2 0.3 0 0.3-0.3zm-11.8-11.9q0-0.3-2.4-1.7 0.1 0 0.1 0.2 0 0.2-0.4 1 0 0 1.5 0v0.6q0.5 0.1 0.8 0.1 0.4 0 0.4-0.2zm1.6 3.2q-1.1-0.3-1.1-0.7 0-0.2 0.2-0.9l-0.7 0.1q-0.1 0-0.2-0.1v-0.6q-0.6-0.1-1-0.3 0.3 0.7 1 2.2h0.9v0.5l0.1 0.1q0.4 0 0.8-0.3zm17.6 18.7q-0.4-0.4-0.9-0.5v0.6l0.4 0.1q0.5 0 0.5-0.2zm-23.4-23.6q-0.6-0.2-2.1-0.9v0.2q0 0.8 1 0.8 0.6 0 1.1-0.1zm0.6 1.2q-0.3-0.3-0.9-0.3v0.6q0.9 0 0.9-0.3zm2.4 4.3q-0.6-0.7-1.2-1.4-0.7-0.8-1.5-0.8-0.8 0-0.8 0.8 0.1 0.5 0.8 0.5v0.5q0.2 0.1 0.3 0.1 0.2 0 0.5-0.1 0.3-0.2 0.4-0.2 1 0.5 1.5 0.6zm-4-4q0-0.3-1.4-0.3-0.5 0.4-0.6 0.6 0.1 0.1 0.2 0.1 0.7 0 0.7-0.3h-0.6q0.3-0.1 1.4-0.1 0.2 0 0.3 0zm0.7 0.9q-0.5 0-1.5-0.3 0.7 1 1.3 1 0 0 0.2-0.7zm23.7 24.4q-0.6-0.7-0.9-0.7l-0.3 0.7 0.6 0.3q-0.2-0.1-0.2-0.1 0-0.2 0.8-0.2zm-0.9-1.2q-0.7-0.3-2.1-1l1.2 1.5q0.2 0.1 0.3 0.1 0.2 0 0.4-0.3 0.1-0.3 0.2-0.3zm-5.1-4.2q0 0-0.2-0.1-0.1 0-0.1 0-1.9-0.3-2.8-0.3h0.1q0 0.1-0.7 0.6l0.3 0.6q0 0 2.1 0l-0.3-0.6q0.5 0 1.3-0.1 0.3-0.1 0.3-0.1zm-21.9-19q-0.2-0.5-1-0.6l0.3 0.9 0.3 0.1q0.4 0 0.4-0.4zm26.3 27.4q-0.1-0.3-0.6-0.3-0.4 0-0.4 0.1 0 0.1 0.8 0.5 0.2-0.2 0.2-0.3zm-28-27.3q0-0.2-1.4-1.3-1-0.6-1.8-1.2l0.2 1.5q0.2 0.1 0.6 0.1 0.5-0.1 0.5-0.1 0.2 0 0.6 0.6 0.5 0.5 1.2 0.5 0.1 0 0.1-0.1zm0.1 1.1h0.6q-0.1 0-0.1-0.4 0-0.2-0.5-0.2zm26.1 18.4l1-0.1q-0.8-0.7-2.4-1.8v-0.3q0.1 0 0.3-0.2 0.1-0.3 0.1-0.5-0.1-0.5-0.7-0.5v-0.9q-0.8 0.2-2.5 0.9 0-0.6-0.3-1.6v-0.9q0 0-1.8 0 0 0 0-1.5l-0.2 0.1q-0.2 0-0.1-0.2l0.3-0.8h0.2q0.2 0 0.4 0.2 0.2 0.1 0.4 0.1h0.2v-0.6q-0.1-0.1-1.5-0.3l-0.3-1.5q0.5-0.2 0.7-0.2 0.1 0-0.1 0.2h0.9q0.2 0 0.4 0.3 0.3 0.2 0.5 0.3l-0.3-1q-0.2-0.1-0.8-0.2-0.6-0.1-0.6-0.2 0.4-0.3 1.1-1.1l-0.7 0.1q-0.7 0-0.7-0.1 0.3-0.3 0.8-0.3l-0.1-1 0.1-0.5-1.2-0.3q-0.1 0.3-0.6 1.5 0.4 0.1 0.4 0.8 0 0.6-0.1 1.1-0.3-0.3-0.8-1.4-0.4-1.2-0.7-1.4-1.9-1.4-6.1-1.6-5.5-0.3-6.4-0.5 0.2 0.1 0.2 0.4h0.1l0.6 0.2q0.1 2 0.1 4 0.1 2.3 0.5 3.9 0 0-0.5 0-0.1 0-0.1 0.3h0.6v0.9l-0.6 0.3h0.6q0 0.3 0 0.9 0.1 0.7 0.1 1 0 0-0.1 0.9-0.7 0.3-0.7 0.5 0.1 0 0.1 0.1h0.6v13.4h0.9q4.1 0 5.8-0.6 0.7-0.6 2.1-1.3 0.4 0.1 0.6 0.1 0.2 0 0.3-0.1l1.6-1.8h0.6q0.3-0.4 0.4-1.4 0-0.9 0.2-1.3l0.6-0.3v-0.4q0-0.6-0.2-1.9-0.1-1.2-0.1-1.8v-0.2l0.6-0.6q0-0.3 0.3-3 0 0.1 0.9 0.3v0.6l-0.1-0.1q-0.2 0-0.2 0.3 0 0.4 0.6 0.4-0.1-0.1-0.1-0.2 0-0.3 0.4-0.4 0.1 0.4 0.6 1.2 0.4 0.3 1.5 0.4 1.1 0 1.6 0.2l0.3 0.9q0.2 0.1 0.5 0.1zm0 7.7q-0.3-0.4-0.8-0.5v0.6l0.4 0.1q0.4 0 0.4-0.2zm-24.9-24.5q-0.1-0.2-0.6-0.9h-0.9q0.2 0.1 0.5 0.6 0.3 0.6 0.7 0.6 0.2 0 0.3-0.3zm0.3 2.4h0.7q-0.2 0-0.2-0.4 0-0.2-0.5-0.2zm3.4 1.6q0 0 0-1.9 0 0-0.5 0 0.1 0-0.1-0.3l-0.3-0.3 0.1 0.1q0.1-0.1 0.1-0.2 0-0.3-0.2-0.8-0.2 0-0.4 0h-0.6q0.2 0.3 0.3 1l-0.3 0.5q0 0 0.5 0 0.1 0 0.2 0.3-0.4 0.1-0.7 0.6-0.2 0.1-0.7 0.1-0.7 0-3.2-0.4 0.4 0.4 1.5 2.1 0.5-0.2 1.6-0.5l-0.4-0.7h0.5q0.7 0 1.4 0.6 0.7 0.6 0.9 0.6 0.2 0 0.2-0.1 0-0.1-0.1-0.2 0-0.2 0-0.3 0-0.2 0.2-0.2zm-5.3-2.2q-0.2-0.3-0.6-0.3-0.4 0-0.4 0.1 0 0.3 0.8 0.5 0.2-0.2 0.2-0.3zm22.1 22.6q0-0.4-1-0.4l0.9 0.6q0.1 0 0.1-0.2zm-23.2-22.7q-0.2-0.4-0.9-0.5l0.3 0.6 0.3 0.1q0.3 0 0.3-0.2zm26.8 27.5v-0.2q0-0.4-0.7-0.4-0.4 0-0.5 0.1 0 0.2 1.2 0.5zm-19.5-18.6q0-0.3-1.5-1.2l0.6 1.5q0.9 0 0.9-0.3zm-1.5-1.8q0-0.3-0.6-0.7-0.6-0.3-1-0.3-0.2 0-0.6 0.1-0.4 0-0.6 0 0.6 0.3 1.1 0.7 0.5 0.3 1.4 0.3 0.3 0 0.3-0.1zm-5.9-3.7q-0.1-0.3-0.5-0.5v0.6h0.3q0.2 0 0.2-0.1zm23.6 26.8q-0.2-0.5-1-0.6l0.3 1h0.3q0.4 0 0.4-0.4zm-19.8-16.1h0.2q-0.2-0.2-1.2-0.6v0.6zm14.4 13.9q0-0.2-0.6-0.2-0.4 0-0.4 0.1 0 0.1 0.8 0.5 0.2-0.1 0.2-0.4zm-0.7-0.9q-0.3-0.4-1.3-0.6v-0.5l-0.3-0.1q-1 0-0.9 0.1 0 0 0 0.5 0 0-0.3 0-0.4-0.5-0.9-0.5 0.1 0 0.1 0.1 0 0.1-0.4 0.8 0.2 0 0.8 0.1 0.6 0.2 0.9 0.2h0.4q0.2-0.6 0.6-0.7 1.1 0.6 1.3 0.6zm-15.6-12.8q-0.1-0.2-0.4-0.2-0.3 0-0.7 0.4-0.4 0.4-0.4 0.7 0.1 0.1 0.4 0.1 0.3 0 0.7-0.3 0.4-0.3 0.4-0.7zm-1.9 1.2q-0.2-0.2-0.5-0.2l-0.3 0.6q0.8-0.2 0.8-0.4zm6.8 7.4q-0.3-0.4-0.7-0.4l-0.3 0.1v0.3q0 0-0.1 0.1-0.1 0-0.1 0 0.6 0 1.2-0.1zm-1.2 1.2l-0.3-0.9h-1l0.3 1.2q-0.5 0-0.5 0.2 0.4 0.3 0.9 0.4 0 0 0.1-0.6 0.1-0.2 0.5-0.3zm-0.6 4.6q-0.2-0.1-0.2-0.5 0-0.2-0.2-0.2-0.6 0-0.6 0.3 0.3 0.1 1 0.4zm-2.8-1.8h0.6q-0.1-0.1-0.1-0.5 0-0.2-0.5-0.2zm17.6-29.4l-0.3 0.5q-0.6-0.2-0.6-0.4 0.1-0.2 0.6-0.2 0.3 0 0.3 0.1zm2.2 12.7l0.1 0.1q-0.1 0.2-0.4 0.2l0.3 0.6h-0.6q-0.1 0.3-0.1-0.9 0-0.6 0.4-0.6zm-88.1 42.9q0 0.3-0.4 0.5l-0.1-0.4q0-0.3 0.2-0.3 0.3 0 0.3 0.2zm1.6 21.7q0 1.1-0.3 1.5-0.2 0.3-0.7 0.4-0.5 0.1-0.7 0.4 0.1 0.3 0.1 0.6 0 0.2-0.1 0.6-0.8 0-0.9 0.3 0-0.1 0 0.7 0 0.3-0.4 0.4-0.5 0-0.5 0.1-0.2 0.1-0.4 0.6 0 0.4-0.2 0.5-0.6 0.6-1.9 0.8-1 0-2 0.1-0.1-0.2-0.2-1.3-0.2-1.2-0.2-1.2h0.1v0.2-0.6h-0.6q-0.1 0.2-0.9 0.9 0.2 0.4 0.9 1.1h0.3q0.1 0.2 0.1 0.4 0 0-0.1 0.6 0 0.3 0 0.6-6.3 1.3-8.6 1.2l-0.9-0.1 0.3-1.4q0.2-0.2 1.5 0v-1.3l-1 0.1-0.8-0.1q0 0 0.6-0.2 0.5-0.3 0.5-0.4 0 0-0.1 0l-0.1 0.1v-0.6q0.7 0.2 0.7 0.4 0 0.1-0.1 0.2 0 0 1.2 0l0.3 0.5q0.5 0.3 1.5 0.6h0.8v-0.6q0 0.1-0.2 0.1 0-0.1 0.5-0.6-0.1 0-0.6 0.2-0.4 0.2-0.7 0.2-0.5 0-0.8-0.2 0.1-0.1 0.3-0.1l0.7-0.1-0.3-0.6q-0.2-0.1-0.9-0.4-0.4-0.3-0.8-0.3l-0.1 0.1q0 0.6-0.9 0.6v-0.6h-0.7q-1.7 0-1.7 0 0.1-0.4 0.9-1.2-0.1-0.1-0.1-0.2 0-0.3 0.4-0.7-0.3-0.1-1.2-0.3 2.3 0 3.1 0.1 0.1 0 0.2 0.1 0 0-1.2 0.1l-0.6 1.5 1.5 0.3v-0.9q0.3-0.2 0.9-0.6 0.4 0.2 0.6 0.4 0 0.2 0 0.2 0.1 0 0.4 0.1 0.4 0.2 0.6 0.2 0.5 0 0.5-0.2 0-0.4-1.5-1v-0.6q1.8-0.7 2.1-0.9 0.6-0.4 1.4-1.8 0.5 0.2 0.5 0.4 0 0.1-0.2 0.2 0.8 0.2 1.1 0.2 0.4 0 0.4-0.2-0.4-0.4-0.9-0.8-0.4-0.5-0.4-1.1 0-0.4 0.1-1.5 0.1-0.8 0-1.4 1.1 0.1 3.3 0.3v-0.9q-0.3 0-0.9 0.1-0.6 0.1-0.9 0.1-0.7 0-1.2-0.2l-0.3-0.6q-0.5-0.2-0.5-0.8 0.1-0.2 0.5-0.1 0.3-0.2 0.3-0.5 0-0.2-0.1-0.6-0.2-0.4-0.2-0.7 0.4 0.1 1.2 0.3 0.3 0 1.2 1 1.1-0.3 1.1-0.5-0.1-0.1-0.2-0.1-0.4-0.3-0.8-0.8-0.1-0.1-1.3-0.1-0.6 0-0.6-0.9-0.5-0.2-1.5-0.6v-0.3l-0.2-0.1q-0.1 0 0 0.1 0.1 0.2 0.1 0.2 0 0-0.4 0.2-0.3 0.1-0.3 0.3 0 0.2 0.6 0.4 0.4 0.2 0.8 0.4-0.8 0.1-1.7 0.1-1.2 0-6-0.7v-0.9h-0.9v1.2q-1.8 0.6-5.4 0.3l0.3 1.2q1.5-0.7 1.9-0.7l0.2 0.1q0 0-0.3 0.3-0.4 0.2-0.4 0.3 0 0.1 0.1 0.3h0.6v7.1h-0.6q0.4 0.4 0.5 0.4 0.1 0 0.1-0.1-0.2 0.7-0.6 1.5h0.6q0 0 0 1.2l0.6 0.3q0.1 0.1-0.1 0.6 0 0.4 0 0.6 0 0.6 0.9 1 1 0.5 1 1.5v0.1l0.9 0.6q-0.2 0.5-0.4 0.5-0.2 0-0.2-0.2 0.2 0.1 0.1 0.4 0 0.2 0.3 0.2l0.2 0.1q0.1 0.3 0.3 0.8-2.8 0.4-6.4 0.4-1.1 0-3.5 0-2.4-0.1-3.5-0.1 0.1-0.8 0.1-2.5 0-2.1-0.3-6.3-0.1-4.3-0.1-6.4 0 0 0.4 0 0.2 0 0.2-0.3 0 0-1.2-0.6 0.6-0.3 1.2-0.5-0.2-0.4-0.9-0.9 0.3-0.9 0.9-2.7 0.7 0.2 3.2 0.6-0.2 0.1 0 0.2 0.1 0.2 0.1 0.2l-0.4-0.1q0 0.6 0.7 0.6h0.3l-0.3-1.2q0.6-0.2 1.7-0.6v-0.3q-0.2 0-0.6-0.2-0.4-0.2-0.7-0.2-0.5 0-1 0.5-0.5 0.5-1.1 0.5h-0.1q-1.3-0.9-1.5-0.9 0 0-1.3 0h-0.2q0.5-0.2 0.5-0.8 0-0.2-0.2-0.5-0.1-0.4-0.2-0.4-0.1 0-0.1 0.2 0-0.4 0.3-1.2l-0.3-0.9q0 0.1 0.1 0.1 0.2 0 0.5-0.4h-0.6q0-0.8-0.2-2.5-0.1-1.7-0.1-2.5 0-0.8 0.2-2.1 0.1-1.5 0.1-2.1 0-0.4 0-0.6-0.4-0.3-0.4-0.4 0-0.2 0.1-0.2h2.1q-0.5-0.2-1.1-0.4-0.5-0.2-0.7-0.8l-0.3-0.3q0.4 0.1 0.5 0.4 0 0.2 0.3 0.2 0.8 0 0.7 0v-0.6q-0.3-0.1-0.3-0.7v-0.2l-0.9 0.3v0.3q-0.4 0-0.3 0v-0.9q0-3.6 0-3.6 0.9 0 3.2 0.2 2 0.2 3.2 0.2l0.7-0.1q0.6-0.6 1.5-0.6l-0.6 0.6q0.9-0.1 2.7-0.3l0.3 1.2h0.2q0.5 0 1.1-0.5 0.3-0.3 0.2-0.4v-0.6q0.2-0.1 0.6-0.1 0.4 0 1.1 0.2 0.7 0.2 1 0.2 3.2 0.2 6.3 0.3 4.2 0.5 5.6 2.1 1.8 0.8 2 0.9 0.6 0.6 0.6 2.4 0 0.1 0.1 0.3 0.8-0.1 1 0.5 0.3 0.8 0.5 1 0-0.1-0.1-0.1 0 0 0 0.1 0 0.3 0.1 0.8 0.2 0.5 0.2 0.8 0 0.3-0.8 2l-1.2-0.1-0.6 0.1 0.6 0.9q0.7 0 2.1 0.2-0.1 0.2-0.3 1.9-0.2 1.1-0.6 1.7-0.1 0.2-0.5 0.2-0.3 0-0.4 0.1-0.4 0.2-0.7 1.1-0.3 0.8-0.9 0.8-0.2 0-0.5-0.1l-0.3 0.6q-0.9 0.6-3.3 0.9 1.1 0.2 2.2 0.5 1.4 0.3 2 0.7 0.1 0.3 0.6 0.9 0.4 0.2 0.7 0.2 0.2 0 0.3 0 0.2-0.1 0.3-0.1 0.2 0 0.5 1.4 0.3-0.1 0.4-0.1 0.3 0 0.3 0.3 0 0.6-0.7 1 0.3 0 0.3 0.1 0 0.5 0 0.3v0.2h0.2q0.3 0 0.4-0.3 0.1-0.2 0.3-0.3-0.1-0.1-0.1 0.6 0 0.2 0.1 0.3l0.9 0.3q0.4 3.7 0.3 5.9 0 0 0-0.1 0 0.2 0.1 0.4 0.1 0.9 0.1 1.3zm-19.6 4.1q-0.3-0.1-1.2 0 0 0.2 0-0.6 0-0.3 0.5-0.3 0.6 0 0.6 0.2 0 0.1-0.1 0.2 0 0.1 0 0.2 0 0.2 0.2 0.3zm1 1.1q0 0.2-0.4 0.4v-0.4q0-0.3 0.1-0.3 0.3 0 0.3 0.3zm14.6-32.9q0-0.1-0.7-0.2-0.8-0.1-0.9-0.2l0.6 0.9h0.1q0.2 0 0.5-0.1 0.4-0.2 0.4-0.4zm-1.9 0.5l0.1-0.3q0-0.5-0.4-0.3 0 0 0-1.2h-0.6q-1 1.3-1 1.5 0.2 0.4 1.4 0.3zm-1.9-1.4l-0.2-0.4q-0.3-0.1-0.9-0.1-0.8 0-1.2-0.2l-0.6-0.8q-0.6-0.3-1.6-0.3-1.3 0-1.6 0l1.1 1.4q0.2 0.1 0.6 0.1 0.6-0.1 0.6-0.1 0.2 0 0.3 0v0.6q-0.2-0.1-0.4 0h-0.4q0.2 0.1 0.7 0.4 0.5 0.2 0.7 0.3l0.6-1.3h0.1q0.5 0 0.6 0.5 0.1 0.5 0.5 0.5 0 0 0.5-0.1 0.3 0 0.4 0.1 0.2-0.3 0.2-0.6zm2.1 8q-0.4-0.5-0.8-0.6l0.3 0.6q0.2 0.1 0.4 0.1 0.1 0 0.1-0.1zm0-1.7q-0.2-0.2-0.5-0.1h-0.3l-0.3 0.6q0 0-1.8 0 0.1 0.1 0.2 0.4 0.1 0.2 0.5 0.2 0.3 0 1.3-0.4 0.9-0.4 0.9-0.7zm-3.9-0.1q0-0.4-1.1-0.6l0.6 0.6q0.3 0.1 0.4 0.1 0.1 0 0.1-0.1zm3.3 7q-0.3-0.6-0.8-0.8v1h0.5q0.3 0 0.3-0.2zm-2-1q-0.1-0.1-0.3-0.3v-0.9q-0.5 0-1.5-0.3 0.3 0.2 0.6 0.9 0.4 0.5 0.6 0.8 0.6-0.3 0.6-0.2zm-3.3 0.2q0-0.1-0.1-0.5-0.1-0.3-0.1-0.5l0.2-0.4h-0.9l0.4 0.9q-0.3 0.1-0.3 0.2 0 0.2 0.8 0.3zm9.6 9.3q0-0.3-0.9-0.6l-0.6 0.6h1.2q0.1 0.1 0.2 0.1 0.1-0.1 0.1-0.1zm-9-14.9l-0.8-0.3q-0.5-0.5-0.9-2.1-0.4-1.4-1.6-2-1.8-0.9-6.4-0.9-0.9 0-3.1 0.5 0.2 0.6 0.6 0.6 0.4 1.2 0.4 4.3 0 1.2 0 3.3-0.1 2-0.1 2.5 0.9 0.1 1.4 0.1 0.8 0 2.4-0.3 1.6-0.4 2.5-0.4 0.2 0 0.3 0.2 0.2 0.2 0.3 0.2 0.3 0 1.9-1.1 1-0.6 2-1.3 0-0.2 0-1.9 0-0.8 0.5-1 0.6-0.3 0.6-0.4zm8.3 13.5q-0.4-0.4-0.8-0.4l-0.3 0.6q-1.9-0.3-1.8-0.3-1 0-1 0.5 0 0.1 0 0.2 0.1 0.1 0.1 0.2 0.5 0 1.2 0 0.8 0.1 1.1 0.1 0.2 0 0.4-0.1 0.2 0 0.3 0v-0.6h0.3q0.5 0.2 0.5-0.2zm1 5.2l0.9 0.6v-0.6q-0.2 0-0.5 0zm-0.5-1.5q-1.3-0.3-1.9-0.6l0.6 0.9q-0.3 0-0.7 0.2 0 0.1 0.3 0.1 0.5 0 0.7-0.3 1-0.3 1-0.3zm-22.5-21.8q0-0.2-0.8-0.2 0.4-0.5 0.4-0.8 0-0.1-0.2-0.1-0.9 0-0.8 0 0.2 0 0.2 0.1 0 0.2-0.8 0.2l0.3 0.6q1.1 0.2 1.7 0.2zm9.1 11.5h-0.1q0-0.1-0.3-0.1l0.3 0.6q0.1 0.2 0.1-0.5zm6.2 6.6q0-0.1-0.3-0.1l0.3 0.6q0 0.1 0-0.5zm-17.6-18q0-0.1-0.3-1-0.1-0.7-1.2-0.6l-0.9 0.1-0.9 0.9q0.7-0.2 0.9-0.6h0.1q0.4 0 1.2 0.5 0.5 0.3 1.1 0.7zm1.9 2.8q-0.1-0.2-0.5-0.2l-0.2 0.1q-0.5 0.5-0.5 0.8 0.1 0.1 0.3 0.1 0.3 0 0.6-0.2 0.3-0.3 0.3-0.6zm15.4 10q-0.2-0.3-0.3-0.3-0.4 0.1-0.3 0.1-0.2 0-0.3-0.1v-1.2l-0.9-0.3v1.8q-0.4-0.1-0.6-0.3-0.2-0.3-0.5-0.3-0.2 0-0.4 0.2-0.1 0.2-0.3 0.1v0.9h-0.1q-0.4 0-1.2-0.4-0.7-0.5-1.1-0.5-0.4 0-0.5 0.3-0.2 0.3-0.4 0.3l0.1-1.6-0.1-0.8h-0.6q0 0.2-0.3 1.8l-0.5-0.6 0.3 1.2-0.9 0.9q-0.3 0-0.4-0.2 0.1 0.2 0.1-0.3l-0.1-0.1q-0.6-0.1-2-0.3v-0.3h-0.2q-0.2 0-0.5 0.2-0.2 0.1-0.5 0.1v0.3q0.8 0.1 2.4 0.6v0.9q0.1 0 0.4 0 0.3 0 0.9-0.1 0.5-0.2 0.8-0.2l0.2 0.9h0.6q0.2-0.3 0-1.5 1.3 0.1 1.9 0.1 0.6 0 1.7-0.1 0 0.1 0-0.5 0-0.1 0.2-0.1 0.3 0 0.7 0.4 0.4 0.5 0.8 0.5h0.1l-0.3-0.6 0.6-0.3q0.2 0.6 0.6 1.8h0.6q0-0.3-0.1-0.8-0.2-0.6-0.2-0.9 0-0.6 0.6-0.7zm-18.1-10.1q0-0.3-1-0.6v0.6h0.8q0.2 0 0.2 0zm23.7 24.2q0 0-0.4-0.5-0.4-0.5-0.4-1.4 0-0.2 0-0.3-1.5 0-1.5 0l-0.3 0.6 1.8 1.2q0 0.1 0 0.4-0.1 0.2-0.1 0.3 0 0 0.1 0.2 0.8-0.4 0.8-0.5zm-24.1-23.5q0-0.2-0.3-0.2-0.8 0-0.8 0.4 0.3 0.2 0.8 0.2 0.3-0.2 0.3-0.4zm3.2 3.9q0-0.1-0.6-0.4-0.7-0.3-0.8-0.4 0.2 0.1 0.3 0.5 0 0.4 0 0.7 1.1-0.2 1.1-0.4zm1.8 1.8q0-0.5-2.3-1.1l0.3 0.9q0.2 0 0.6 0.2 0.4 0.1 0.6 0.1 0.8 0 0.8-0.1zm-6.3-6.7q-0.3-0.4-1.1-0.3v0.6q0 0-1.6 0h-0.5q0.2 0.2 0.4 0.5 0.3 0.4 0.9 0.4 0.5 0 1.2-0.4 0.7-0.4 0.7-0.8zm22.8 26.5v-0.6h-0.9q-0.2-0.2-0.2-0.8 0-0.5-0.1-0.7l-0.9-0.3q0.5 1.4 0.9 2.4 0.6-0.1 1.2 0zm-23.1-21.4l1.6 0.5q-0.1-0.6-0.9-0.6-0.7 0-0.7 0.1zm6 6.2q-0.1-0.3-0.5-0.3 0.3 0-1.2 0.3l0.9 0.6q0.8-0.1 0.8-0.6zm13.7 17.6q-0.3-0.6-0.8-0.6v0.9h0.3q0.5 0.1 0.5-0.3zm-14.9-14.8l-1.4-0.7 0.3 0.9q1.1 0 1.1-0.2zm0.1 0.7q-0.3-0.3-0.9-0.3v0.7q0.9 0 0.9-0.4zm12.2 14.1h0.6q-0.1-0.1-0.1-0.4 0-0.2-0.5-0.2zm1.2 0.4q-0.2-0.2-0.4-0.2-0.3 0-0.3 0.2 0 0.2 0.4 0.5 0.3-0.4 0.3-0.5zm-14.8-14.3q-0.3-0.1-1-0.1h-0.3v0.3q0.1 0 0.7-0.1 0.6-0.1 0.6-0.1zm3.8 2.5l-0.3-1.1q-1.5 0-2.8 0-1.5 0-2.9 0l-0.3 0.8q0.5 0.3 1.5 0.9-0.6 0.3-0.6 0.5 0.1 0.2 0.5 0.2h0.1q0.1-0.5 0.6-0.7-0.2 0.2-0.2 0.2 0 0.2 0.5 0.2 0.9-1.4 0.9-1.6v-0.2q1.5 0 1.5 0v0.5h0.2q-0.2 0 1.3 0.3zm-5.5-2.4q-0.1-0.1-0.5-0.2-0.2-0.1-0.1-0.3 0.2-0.1 0.2-0.1h-0.1q-0.3 0-0.8 0.4-0.6 0.5-0.6 0.8 0.1 0.1 0.4 0.1h0.4v-0.6q0.3-0.1 0.9-0.1 0.1 0 0.2 0zm5.2 4.8l-0.9-0.3-0.1 0.3q0 0.1 0.2 0.3 0.1 0.2 0.2 0.3h-0.1q-0.4 0-0.4 0.6 0 0.5 0.8 0.6 0-0.6 0.3-1.8zm9.2 11.7q-0.3-0.3-0.9-0.3v0.6q0.9 0 0.9-0.3zm-11.9-12l-0.3-0.5q-0.1-0.1-0.3-0.1-1.3 0-1.2 0.1l1.2 0.8h0.1q0.5 0.1 0.5-0.3zm-3.8-2.1q-0.2-0.7-1-0.8 0.3 0.1 0.3 1.1 0.2 0.1 0.3 0.1 0.4 0 0.4-0.4zm5 4.8q-0.2-0.1-0.2-0.6 0-0.3-0.6-0.3-0.2 0-0.8 0.1-0.6 0.2-0.8 0.2v0.6q1.2-0.1 2.4 0zm-3.9-3.5q-0.1-0.2-0.4-0.2-1 0-1 1.1 0 0.4 0.3 0.4 0.1 0 0.5-0.2 0.6-0.6 0.6-1.1zm5.1 6.5q0 0 0-0.8 0-0.4-0.3-0.4-0.2 0-0.3 0l-0.6 0.9h0.3q0 0.1-0.1 0.1 0 0.1 0.5 0.2 0.5 0 0.5 0zm0.6 0.9l-0.9-0.3v0.9l-0.2-0.1q-0.2 0-0.2 0.5l0.1 0.5h0.9q-0.2-0.1-0.2-0.3 0-0.4 0.5-1.2zm-8.7-5.9q-0.4-0.6-0.9-0.7v0.9l0.4 0.1q0.5 0 0.5-0.3zm0.3 1.7h0.6q-0.1 0-0.1-0.4 0-0.2-0.5-0.2zm8.2 6.9q-0.2-0.2-0.4-0.3v-0.6h-0.6q0.1 0 0.1 0 0 0.1-0.3 0.2-0.2 0-0.4 0.1v0.8l1.5 0.6q-0.2-0.8 0.1-0.8zm1.4 2.3h0.3q-0.1-0.5-0.3-1.5h-0.6q-0.2 0.2-0.2 0.6-0.1 0.5-0.1 0.6-0.3 0.1-0.9 0.3v0.6q0.4-0.1 0.6-0.6 0 0 1.2 0zm-3-3.6h-0.2q-0.3 0-0.2-0.1 0.2-0.3 0.2-0.3 0-0.2-0.3-0.2-0.1 0-0.4 0.1-0.4 0-0.4 0-0.4 0-0.4-0.4 0-0.2 0.1-0.4 0.2-0.3 0.2-0.4-0.1-0.1-0.3-0.1-0.9 0-1.7 1-0.2 0.2-1.1 1.8 2.4-0.5 2.4-1l-0.6-0.3v-0.5q1.6 0.9 2.4 0.9 0.2 0 0.3-0.1zm-6.6 1q-0.2-0.3-0.9-0.3v0.6q0.9 0 0.9-0.3zm65.3-21.9q0 0.1-0.2 0.1 0 0-0.1-0.1-0.1 0-0.1 0-0.6-0.8-0.6-0.9 0-0.1 0.1-0.1 0.2 0 0.5 0.4 0.4 0.4 0.4 0.6zm-19.8-11.2l-0.3 0.4q-0.6-0.2-0.6-0.4 0-0.2 0.5-0.2 0.4 0 0.4 0.2zm26.4 28.3l0.1 0.3q0 0.4-0.4 0.4-0.4 0-0.8-0.4-0.4-0.5-0.4-0.9 0-0.6 0.6-0.9-0.1-0.1-0.1 0.7l0.1 0.2zm-1.8-3.3q0 0.3-0.2 1.1-0.2 0.7-0.2 1-0.1 0-0.5 0-0.3-0.1-0.5-0.1-0.1 0-0.3 0.1-0.1 0-0.2 0 0 0.2 0.2 0.3 0.2 0.1 0.4 0v0.6h-0.9q0 0.2 0 0.5 0 0.2 0 0.3 0 0.1 0 0.2-0.2 0-0.8-0.7-0.5-0.6-0.7-0.9l-1.2-0.3-0.7 0.9q-0.1-0.2-0.3-0.2l-0.3-0.1v-0.9h-0.6v0.9l-0.9 0.6-0.3-0.9q-0.5-0.2-1.6-0.6 0.2 0.1 0.2 0.2 0 0.1-0.8 0.1 0.4 0.4 1.3 1.2h-0.2q-0.2 0-1.1-0.3 0.1-0.1 0.1 0.5 0 0.2-0.4 0.2 0-0.7-0.6-0.7h-0.3l-1.2 1q-1.5 0.3-4.8 0.3-4.1 0-6.6-0.3-0.9 1.6-1 4-0.1 2.1-0.2 4.2-1.2 0-3.7 0.2-2.5 0.1-3.7 0.1-1.9 0-3.6-0.3-0.1 0.2-0.1-1.2l0.1-0.3 0.9-0.9q0 0.1 0-1 0-0.4 0.5-1.7 0.6-1.6 0.7-1.9h0.6q0.3-0.8 0.6-2.6 0.3-1.8 0.7-2.6l1.2-3.1 0.6-0.3q0 0.2 0-1v-0.2q0.9 0.3 0.9 0.6 0 0.2-0.3 0.3h0.6q-0.4 1-0.6 1.8h-0.5q-0.3 0-0.3 0.1 0.4 0.6 1.1 0.8 0 0 0-0.1 0-0.2 0.3-0.8 0.2 0.1 0.6 0.4l0.4 0.5h0.9v1.6q-0.6 0-1.3 0.3-0.4-0.1-0.4 0.2-0.1 0.2-0.2 0.4 1-0.4 1.8-0.4 0.8-0.1 1.6-0.2 0-0.2-0.1-0.3 0.1 0-0.2 0h-0.3q0-1-0.3-2.1l-1.5-0.4-0.1-0.1q0-0.1 0.2-0.3 0.2-0.3 0.2-0.5 0-0.6-1-1.8v-0.2q0-0.2 0.2-0.6 0.2-0.3 0.2-0.4l-0.1-0.1-1.2 0.4q0.1-0.7 0.2-1.3 0.1-1 0.5-1 0.1 0 0.4 0.2 0.3 0.3 0.3 0.4 0 0.1-0.2 0.1h0.9v-0.9q-0.3-0.2-0.5-0.2-0.3 0.3-0.7 0.2 0.2-1 0.4-2 0.2-0.2 1.8-0.5v-0.6q-0.5 0-1.5-0.3 0.3-1.2 0.5-2.4 0.3-1.3 0.3-2.4 0-0.1 0.1-0.4l0.6-0.3q-0.1 0.2-0.1-1.7 0 0 0.4-1.3h0.6q-0.3-0.1-0.3-0.7 0-0.6 0.3-1.5 0.2-1.4 0.3-1.5 1.8 0 5.2 0.6-0.1 0.5-0.3 1.5 0.8-0.6 1.5-0.8 0.8-0.2 1.6-0.4 0-0.3 0-1.8 0-0.4 0.7-0.8 0.6-0.2 1.1-0.5-0.1-0.1-0.3-0.9-0.2-0.7-0.6-0.7-0.5 0-0.9 0.4v-0.6h-1q0.1 0.2 0.4 0.7 0.3 0.4 0.3 0.6 0 0.5-0.4 0.5h-0.3q0.1-0.3-0.3-0.3h-0.2q0 0.1 0.2 0.4 0.3 0.4 0.3 0.6 0 0.1-0.2 0.2-0.2 0.1-0.2 0.3 0 0.1 0.1 0.5 0.3 0.3 0.3 0.4 0 0.2-0.5 0.1v0.3h-0.2q-0.5 0-1.2-0.4-0.5-0.3-1.1-0.6v-0.6q-0.3-0.1-3.1-0.9 0.1-1.2 0.6-3.7l0.7-0.3h9.5l-0.3 1.9q0.5-1.4 2-1.4 0.8 0 1 0.5 0.2 0.8 0.3 0.9 0.2 0.1 0.6 0.1 0.5 0 0.6 0.2 0.2 0.1 0.5 1.4 0.3 1.4 0.5 1.6 0.3 0.8 0.6 1.6l0.6 0.3v1.2h0.3q0.9 3.5 0.9 5.3 0 0.5-0.3 0.8l0.3 1.6h-0.9v0.9h-0.3v0.6q0.2-0.1 0.3-0.1 0.3 0 0.3 1.3h-1.2q0 0.5-0.3 1.2h0.9l0.6-1.2h0.9q0.1-0.1 0.1-0.3 0-0.1-0.4-0.3l0.6-0.9q-0.4-0.2-0.8-0.5 0.4-0.2 0.7-0.1h0.4q0-0.1-0.1 0 0 0 0.3 0h0.5q0.5 1.8 1.5 4 0 0-1.8 0l2.1 0.6v0.3q0 0.7 0.5 1.7 0.6 1.3 0.7 1.7 0.1 0.7 0.3 2.1h0.7q0 0 0.3 1.4 0.3 0.8 0.3 1.4zm4.6 12.2q0 0-2.5 0-0.1-0.1-0.1-0.2 0-0.4 1-0.4 0-0.7-0.5-0.7-0.5 0-0.9 0.6-0.4 0.6-0.7 0.7-0.9 0.3-2.3 0.3-0.9 0-2.5-0.2-1.8-0.3-2.6-0.4-1.2-3.9-1.5-6.1 0.3-0.1 0.9-0.4 0.6-0.4 0.9-0.5-0.4-0.2-0.4-0.4 0-0.3 0.7-0.5 0.4 0 0.4 0.3 0 0.3-0.4 0.9l0.8-0.1q0.3 0 0.5 0.1l0.3 0.6q0.4 0 0.7-0.4 0.3-0.4 0.5-0.5 1-0.4 2.6-0.4 0.5 0 1.3 0.1 0.9 0 1.3 0 0.7 1.8 0.9 3.1h0.6q0.3 0.7 0.5 2.2 0.3 1.7 0.5 2.3zm-11.7-8v0.7h-0.5q-0.6 0.1-0.6-0.2 0.5-0.7 0.9-0.7 0.2 0 0.2 0.2zm-1.5-26l-0.3-0.6q-1.3 0-1.3 0l0.6 0.9h0.3q0.1 0 0.3-0.2 0.2-0.2 0.4-0.1zm-4.7-2.3q0-0.3-0.8-1.4h-1q0.3 0.5 0.4 0.9 0.4 0.7 1.2 0.7 0.2 0 0.2-0.2zm5.1 6.9q-0.5-0.3-1.4-0.3l0.3 0.6q1.1-0.3 1.1-0.3zm-10.8-10.1v-1.3q-0.3 0-0.3-0.4l-0.1-0.1q-1.5 0-1.5 0-0.1 0-0.1 0.2 0 0.3 0.4 0.6-0.2 0.1-0.4 0.2-0.3 0.1-0.3 0.1 0.8 0.2 2.3 0.7zm-0.5 2.3q-0.1-0.2-0.5-0.2h-0.3q-0.2 0.3-0.2 0.5 0.1 0.2 0.4 0.2 0.6 0 0.6-0.5zm14.1 15q0-0.2-0.3-0.2-0.7 0-0.8 0.3-0.2 0.6-0.3 0.7l-0.6-0.3v0.3q-0.3 0.3-0.3 0.4 0 0.2 0.3 0.2 0.3 0 1-0.2 0.6-0.1 0.8-0.1-0.1 0-0.1-0.2 0-0.2 0.1-0.4 0.2-0.3 0.2-0.5zm-4.2 0.1l0.7-0.6h-1.1-0.5q0 0.3 0.9 0.6zm-10.3-8.2q-0.2-0.2-0.4-0.2-0.2 0-0.3 0.2 0 0.7-0.4 1.2-0.4 0.4-0.4 0.5 0.2 0.4 0.8 0.7 0 0 0-1.8 0.7-0.1 0.7-0.6zm13.4 18.1l0.3-0.7q-0.2 0-0.6 0-0.5 0.1-0.6 0.1-0.1 0-0.3-0.1l-0.3-0.8h-0.9l-0.7-0.7q0.7-0.2 1.9-0.6-0.2-0.4-0.4-0.4-0.5-0.2-0.5-0.2 0.5-1 1.2-2.1v-0.7q-0.6-0.2-0.9-0.2 0.1 0 0.1-0.1 0.2-0.3-0.1-0.9h-0.3q-0.4-0.1-0.4 0.1 0 0.1 0.1 0.2l-0.7 0.6q0.1 0 0.3 0 0.1 0 0.1 0.1l-0.1 0.2q-0.5 0.4-1.5 1 0 0.3 0.4 0.3h0.2l0.4-0.6q0.2 0.5 0.5 1.5-0.8 0.4-1.2 0.4v-0.1l-1.2-0.9q-0.3-0.7-0.3-3.3 0-0.6-0.4-1.5-0.4-0.9-0.5-1.3-0.1-1.5-0.3-4.4l0.9 0.7 0.6-1.3q-0.2 0-0.6 0.4-0.4 0.3-0.5 0.3l-0.1-0.1q0-0.6-0.6-0.6 0 0 0 0.5 0 0.1-0.3 0.1-0.2-0.5-1.1-2.9-0.7-1.7-0.7-3l-0.1-0.2-1.2-0.6q-0.4 1.6-0.8 3.1-0.5 1.7-0.5 3.3 0 0.7-0.3 1.3l-0.9 0.6q0.1 1.5 0.1 3.7l-0.1 0.6-0.6 0.6q-0.1 0.3-0.6 2.9-0.4 1.8-0.9 2.9 0.5 0 2-0.4 1.3-0.2 2-0.2 0.8 0 2.5 0.2 1.6 0.2 2.5 0.1h0.8l0.6-0.3q0.8 0.4 0.8 0.6-0.1 0-0.2 0-0.2 2.4-1.7 2.4-0.7 0-1.6-0.3 0 0.5-0.3 1.3 0.4 0.1 1.2 0.3 0.3 0.7 0.9 0.6-0.3-0.4-0.3-0.7 0.2-0.2 0.7-0.2-0.2 0 1.1 0.3v0.6h0.2q0.7 0 0.8-0.5 0-0.1-0.1-0.1h0.7v-0.9q0.2 0 0.4 0.2 0.2 0.1 0.5 0.1 0.1 0 0.3 0-0.6 0.3-0.6 0.4 0 0.1 1.8 0.8v-0.9q-1.1-0.2-1.1-0.5 0.4-0.2 1.1-0.1zm-18.4-15.7l0.9 0.3q-0.1 0-0.1-0.7 0-0.2-0.4-0.2h-0.4zm-0.1-0.4q0-0.4-1.1-1.1v0.5q-0.1 0.8 0.8 0.8 0.3 0 0.3-0.2zm16.4 18.2h0.6q-0.1-0.1-0.1-0.4 0-0.2-0.5-0.2zm-17.5-16.3q-0.1 0-0.1-0.4 0-0.2-0.3-0.2-0.8 0-0.8 0.3 0.5 0.3 1.2 0.3zm21.6 21.5q-0.3-0.5-0.8-1.5h-0.9q-0.1 0.4-0.3 1.2-0.2 0.8-0.3 1.2 0.2 0.1 0.3 0.9v0.3q1-0.5 1-1-0.1-0.2-0.4-0.2 0.8-0.4 1.4-0.9zm-15.8-15.6v-0.7q-0.3 0-0.9-0.3v-0.2q-1.2-0.4-3.6-0.4-0.7 0-1 0l0.6 1.3q0 0-1.5 0l-0.3-0.4q-0.5 0-0.5 0.2l1.1 0.8-0.3 0.9h0.6v-0.6q0.9-0.3 1.7-0.6 1.1-0.4 1.9-0.4 0.6 0 2.2 0.4zm5.2 10.1h0.6q-0.1 0-0.1-0.5 0-0.1-0.5-0.1zm-6.4-3.1q-0.1 0-0.5-0.3-0.5-0.4-1.1-0.4-0.1 0-0.3 0-0.1 0.1-0.3 0.1-0.5 0.7-0.5 1 0.1 0.2 0.4 0.2 0.3 0 0.3-0.3 0.1-0.3 0.2-0.6 0.4 0 1.8 0.3zm-2.5 3.7h0.7q-0.2-0.1-0.2-0.5 0-0.1-0.5-0.1zm-4.9 0h0.7q-0.2-0.1-0.2-0.5 0-0.1-0.5-0.1zm3.5 3.5q-0.4-0.2-0.7-0.1 0 0 0-0.5l-0.3-0.2 0.6-0.5q0 0.1 0.1 0.2 0 0-0.4-1.5h-0.9v0.1q0 0.3-0.2 0.7-0.2 0.5-0.1 0.7v0.1l0.9 1.2h0.4q0.1 0 0.3 0 0.3-0.1 0.3-0.2zm-2-1.5q0-0.3-1.2-1.1-0.2 0.1-0.5 0.7-0.2 0.3-1.3 0.2-0.4 0.7-0.4 0.9 0 0.1 0.1 0.1 0.1 0 1.2-0.6 0.3 0 0.3 1v0.5q0.5-0.1 1.3-0.3h-0.1q-0.3 0-0.3-0.5 0-0.2 0.1-0.4l0.5-0.3q0.3-0.1 0.3-0.2zm22.1 2.5q0 0.4-0.6 0.4 0 0.2 0-0.5 0-0.1 0.2-0.1 0.4 0 0.4 0.2zm42.8-29.6q0 0.4-0.3 0.8-0.4 0.4-1.7 0.9-1.5 0.6-1.8 0.8-0.8 0.8-2.7 2.1h-0.6l-0.5-1.2q-3.9-3.6-7.4-3.6-2.9 0-5.8 2.4-0.3-0.2-1.1-0.3l-0.3-1.1q-0.2-0.1-0.5-0.1-0.2 0-0.7 0.3-0.6 0.2-0.6 0.3 0 0.2 0.3 0v1.2h-0.8q-0.5-1.3-0.6-2h-0.9q-0.1-0.2-0.1-0.6 0.1-0.5 0.1-0.5 0-0.3 0-0.4h-0.9q0-0.3-0.3-0.8 0.3-0.4 0.9-0.8 0.7 0.2 0.7 0.9 0 0.1 0.5 0.1l-0.3-0.2v-0.9q0.6 0.1 1 0.1l-0.7-0.1v-1.5q0.9-0.2 2.6-0.5 1.2-0.1 2.5-0.3 0-0.1-1.6-0.9 4.2-1.3 7.4-1.3 6.9 0 10.7 2.8 3.5 2.6 3.5 4.4zm-22.7 1.2q0 0.2-0.4 0.4l-0.1-0.3q0-0.3 0.3-0.3 0.2 0 0.2 0.2zm-5-2.7q0 0.2-0.4 0.5-0.1 0.1-0.3 0.1-0.2 0-0.2-0.1 0.3-0.6 0.8-0.6 0.1 0 0.1 0.1zm0 1.5q0 0.1-0.4 0.5 0 0-0.1 0-0.1 0-0.2 0-0.2 0-0.2-0.1 0.3-0.5 0.8-0.5 0.1 0 0.1 0.1zm29.1 21.2v3.5q-0.2 0.3-0.9 0.9v-0.9q-0.8-0.1-1.1-0.3 1.3-0.7 1.3-0.8-0.2-0.2-1-0.4v-0.9h-0.9q0 0 0 0.5l-0.3 0.1v0.3l-0.2 0.1q-0.1 0-0.1-0.3 0-0.3-0.3-0.1l-0.9-1.4h-0.2q-0.5 0-0.5 0.1 0 0.1 0.2 0.2-0.3 0-0.7 0.2-0.1 0.1 0.1 0.1h-0.6q-0.1-0.6-0.3-1.5h-0.6q0.5 0.9 1.1 1.7 0.7 1.3 0.7 1.8-0.5 0.3-0.6 0.9 0.9 0.2 2.6 0.9l0.9 1.2q0.1 0 0.5 0 0.3-0.1 0.4-0.1l0.2 0.1q0 0.1 0 0.4 0.1 0.4 0.1 0.5 0 0.4-0.6 0.5-0.5 0.1-0.6 0.3-0.3 0.3-0.6 1.3-0.2 1-0.6 1.3-0.4 0.1-1.1 0.3-0.3 0.1-0.6 0.7-0.3 0.6-0.7 0.8-0.3 0.1-1 0.2-0.7 0-1 0-1.6 0.6-3.3 1.2-1.3 0.4-3.7 0.4-3.5 0-4.6-0.4l-0.9-0.9-0.6 0.6-0.3-0.6q-0.4-0.1-2.4-0.6-1.6-0.3-2.2-0.8-0.2-0.3-0.6-0.9-0.3-0.1-0.9-0.2-0.6-0.2-0.9-0.4-0.4-0.3-0.9-1-0.5-0.7-0.8-1l-0.1-0.1q0-0.1 0.3-0.3 0.2-0.2 0.2-0.3 0-0.2-0.4-0.3-0.3 0-0.8 0.1-0.5 0-0.5 0h-0.2q-0.2-0.3-0.9-0.8 0.4-0.3 0.6-0.9 0.1-0.3 1.1-0.3 0.2 0 0.5-0.6 0.3-0.5 0.4-0.6 0.4-0.3 1.2-0.5 0.9-0.2 1.2-0.4 0.3-0.2 0.4-0.6 0.1-0.2 0.9-0.2l0.2-0.1v-0.6q0.4 0 1.1-0.2 0.5 0.9 1.2 2 0.4 0.1 1.1 0.3 0.3 0.5 0.9 1.2 1.2 0.9 4.4 1.7l0.6 0.6h0.5q2.3 0.2 3.9-0.6l0.5-0.8q1.6-1.1 2.4-3.6l-0.9-0.6q0-0.5-0.3-1.4-0.7-1.5-5.2-3.2v-0.6q0.7-0.2 1.5-0.3 0.5-0.2 1.4-1.1 1.1-0.1 1.7 1.4 0.2 0.1 0.7 0.1 0.2 0 0.6-0.1 0.5 0 0.8 0v-0.5q-0.2-0.1-0.9-0.7-0.2-0.2-1.2-0.2h-0.3l0.3-0.9q-0.6-0.3-0.6-0.3-0.4 0-0.5 0.6-0.9 0.3-4.1 0.3h-0.3q0 0.1 0.6 0.6 0 0-0.2 0.5-0.2 0.3-0.1 0.6h-0.9q-0.1 0-1.2-0.6-1.1-0.7-2.3-0.7-0.3 0-0.9-0.1l-0.3-0.6q0.2 0-1.2 0-0.4 0-1.1-0.9-0.4-0.2-0.9-0.1-0.7 0.1-0.8 0.1-0.2 0-0.9-0.5-0.8-0.6-0.9-0.7 0.4-0.3 0.4-0.6 0-0.2-0.1-0.3h-1.2v-0.8l-0.9-0.3q-0.6-0.6-1-3.9-0.4-2.6-0.4-4.3 0 0-0.5 0-0.1 0-0.1-0.3l0.9-0.6q0-0.3 0-0.9v-0.5h0.3v0.8q0.4 0.2 1.3 0.3 0.9 0.2 1.3 0.3 0 0.2 0-0.6 0-0.2 0.3-0.2 0.1 0.5 0.1 1l-0.1 0.4q0.5 0.3 0.8 0.5 0.4 0.3 0.4 1h0.6q0.4-0.6 0.7-0.6h0.1l0.3 0.9q0.2 0.2 0.7 0.2 0.5 0 0.8 0.1v0.6q-0.3 0-1.5-0.3v0.4q0 1.4 0.6 1.4 0.3 0 0.5-0.3 0.2-0.3 0.4-0.3l-0.4-0.3q0.4-0.4 0.8-0.4l0.1 0.1q0.2 0.6 0.2 0.9 0 0.6-0.4 0.2v0.6q1.6-0.4 1.8-0.4-0.1 0.3-1.3 0.7v0.3q2.1 0.4 3.8 1.1v1.2q-0.1 0-0.3-0.2-0.1-0.2-0.3-0.2-0.3 0-0.5 0.5-0.1 0.4-0.3 0.5-0.2 0.1 1.3 0.1 0.5 0 1-0.5 0.4-0.5 0.7-0.5h0.2v0.6h0.9l0.3 0.6q0 0 0.3-0.1 0.4-0.1 0.4-0.1 0-0.1-0.2-0.1 0.5 0 0.5-0.1 0-0.3-0.7-0.5-0.2-0.1-0.6-1.2h-0.9v-0.5q3.7 1.7 6.7 2.6 0.6 0 1.7 0.3 0.2 0.3 0.6 0.8 0.3 0.3 0.9 0.4 0.6 0.1 0.9 0.2 1.2 0.7 3.5 3.6h0.6q1.1 2.3 1.7 4.9-0.1-0.1 0-0.1 0 0 0 0.1zm-9.7-25.2q-0.2-0.2-0.6-0.2-0.4 0-0.9 0.3-0.5 0.4-0.5 0.8 0.2 0.2 0.6 0.2 0.4 0 0.9-0.3 0.4-0.3 0.5-0.8zm-2.6 1q0-0.1-0.4-0.5-0.4-0.4-0.5-0.5 0.1-0.1 0.1-0.2v-0.5h-0.9q0.1 0 0.1 0.1 0 0.2-0.7 0.2 0.5 0.5 0.9 1 0.4 0.5 1.2 0.5 0.2 0 0.2-0.1zm2.1 1.7v-0.5q-0.5-0.2-1.5-0.6-0.1 0.4-0.8 1.4 0.1 0 0.6 0.2 0.5 0.2 0.8 0.2 0.2 0 0.3-0.1 0-0.5 0.6-0.6zm-3.2-1.1q-0.3-0.3-0.9-0.3v0.6q0.9 0 0.9-0.3zm-1.8-1.3q0-0.8-1-0.8-0.2 0-0.2 0.2 0 0.2 0.4 1h-2.4q0 0.3-0.1 0.7-0.1 0.3-0.6 0.5 0.2-0.2 0.5-0.2 0 0 0.5 0.2l-0.3 0.5q1.8 0 1.8 0l0.1-0.2q0 0 0.3 0h0.2q0-0.8 0-1.5l0.3 0.1q0.5 0 0.5-0.5zm-6.2 2.1q-0.1-0.1-0.3-0.1-0.2 0-0.5 0.1v0.6q-0.8 0.3-0.8 0.7 0.1 0.1 0.3 0.1 0.5 0 0.9-0.5 0.4-0.5 0.4-0.9zm-2.8-0.2q-0.3-0.3-0.9-0.3v0.5q0.9 0 0.9-0.2zm17.5 18.1q-0.1-0.1-0.1-0.5 0-0.2-0.2-0.2-0.6 0-0.6 0.2 0 0.2 0.9 0.5zm-0.5 2.3q-0.3-0.7-0.7-0.9l0.3 0.9q0.2 0.1 0.3 0.1 0.2-0.1 0.1-0.1zm-5-4.8q0-0.6-1.2-1.7 0.2 0 0.2-0.2 0-0.3-0.2-0.6-0.6 0-1.2 0 0.3 0.2 0.3 0.8l-0.3 0.3q0 0 0.8 0h0.1v0.6q-0.3-0.1-0.4-0.1-0.2 0-0.2 0.2 0 0.4 0.5 0.8 0.5 0.3 1 0.3 0.6 0 0.6-0.4zm-2.9 0.7q-0.6-0.2-0.7-0.5 0-0.2 0.3-0.6 0-0.1-0.3-0.1h-0.2l-0.3 0.6q-0.5-0.2-0.7-0.4l0.7 0.4q0 0.1-0.6 0.3 0.6 0 1.8 0.3zm-9.8-8.6q-0.1-0.2-0.5-0.2-0.6 0-0.6 0.2 0 0.1 0.4 0.3 0.4 0.1 0.5 0.1 0.2-0.3 0.2-0.4zm-1.4-0.8q-0.2-0.1-0.5-0.2l0.3-0.6q-1.5 0-1.5 0 0 0.3-0.2 1-0.1 0.7-0.1 1 0.2-0.1 0.3 0 0.3 0.1 0.4 0.1l0.2-0.1v-0.8q0.5-0.2 1.1-0.4zm9.1 10.3q-0.2-0.2-0.2-0.5 0.1-0.6 0.1-0.5-0.1-0.2-0.6-0.2h-0.2l-0.3 0.6-0.1-0.1q-0.5 0-0.8 0.4 0.8 0 2.1 0.3zm-8.2-5.1q0-0.3-0.5-0.5v-0.6h-0.6v0.6l0.9 0.6h0.2q0 0 0-0.1zm5.3 3.6v-0.6q-0.4 0-1.1 0-0.8 0.1-1.1 0.1-1 0-2.2-0.4l0.6 0.9q0.7 0.3 1.4 0.3 0.4 0 1.2-0.2 0.9-0.1 1.2-0.1zm-3.7-2.5q-0.3-0.4-1-0.4-0.2 0.5-0.2 0.9l0.2 0.5q1-0.6 1-1zm-3.3-2.3q0-0.2-0.3-0.2l0.3 0.6q0 0.2 0-0.4zm2 3.8l-0.3-0.5h-0.2q-0.1 0-0.6 0.1-0.4 0-0.6-0.1l1.2 0.9q0.5 0.1 0.5-0.4zm15.5 17.3q-0.3-0.2-1.2-0.3v0.3q1 0 1.2 0zm-0.9-0.8q-0.3-0.3-0.9-0.3v0.6q0.9 0 0.9-0.3zm2 2.3v-0.6q-1.9-0.2-3.2-0.9 0.3 0.6 0.5 1.2 0.5 0.8 0.9 0.8 0 0 1.8-0.5zm-4.9-0.9h0.9l-0.6-0.9h-0.9zm-3.4-1.8q0-0.3-1.2-0.8l0.3 0.9q0.3 0.1 0.5 0.1 0.4 0 0.4-0.2zm2.4 5v-0.8q0.1-0.8-0.1-1.2h-0.9v-1.2h-0.3q0.4-0.2 0.4-0.3 0.2-0.2 0.2-0.5-0.1-0.1-0.9-0.3l0.3-0.6h-0.9q0.2 0.4 0.3 0.7 0.1 0.2 0.6 0.5h0.1q0 0.3-1 0.3-0.2-0.6-0.6-0.6v0.3l-0.1-0.1q-0.2 0-0.2 0.3l0.1 0.3h1.1q0.3 1 1.2 2.7h0.6q0 0.4 0.1 0.5zm-11.1-7.6q0-0.3-0.5-0.3-0.4 0.1-0.4 0.2 0 0.1 0.8 0.5 0.1-0.3 0.1-0.4zm-1.1 0.5q-0.3-0.7-0.8-0.7v0.9h0.5q0.3 0 0.3-0.2zm51.6-28v0.6h-0.6v0.6l-1.2-0.6 0.9-0.6q-0.3-0.2-0.3-0.4l0.3-0.5zm3.9 12.8q-0.7 0-1.8-0.3l0.3-0.9q-0.5-0.1-0.9-0.3v-0.6q-0.1 0-1.4-0.3-1-0.2-1-0.7 0-0.2 1.2-0.2 0 0 3.3 0.3 0.1 1.9 0.3 3zm-5-2.9q0 0.1-0.4 0.5h-0.1q-0.3 0.1-0.3-0.1l0.4-0.5h0.2q0.2 0 0.2 0.1zm1.6 1.9l-0.5 0.4h-0.1q-0.6 0-0.6-0.4l0.4-0.2h0.4q0.4 0 0.4 0.2zm-2-0.4q0 0.2-0.2 0.2h-0.1q-0.3-0.6-0.3-1.1 0-0.1 0.1-0.1 0.1 0 0.2 0 0.3 0.8 0.3 1zm-1.5-1q-0.7-0.4-0.7-0.6 0.1-0.3 0.5-0.3 0.1 0 0 0.5 0 0.3 0.2 0.4zm15.8 17.6q-0.1 2.6-0.6 7.7-1 0.2-2 0.2-0.7 0-2.1-0.1-1.5-0.1-2.1-0.1 0.3-1.5 0.3-2.1 0-0.5-0.3-2h-0.3q0.4 0-1.5-0.3-0.1-0.2-0.1 0.6 0 0.4 0.3 0.3l-0.2 0.6q-0.5-0.1-1.5-0.3 0.8-1.9 0.8-2.5l-0.2-0.5q-0.1 0.3-0.7 0.3h-0.2q0 0 0 2.1-0.7 0.2-0.7 0.6 0 0.1 0.4 1.4l-0.6 0.3h-0.6v-1.4q-0.8-0.4-1.5-0.5-0.8 0-1.5-0.1v-0.6q0-0.1-0.2-0.1-0.3 0-0.4 0.4 0 0 1.2 1.2h-0.2q-0.4-0.1-0.4 0.3 0 0.8 0 0.8h0.6v-0.6l0.6-0.5v1.5q0.2 0.1 0.6 0 0.5-0.1 0.6-0.1 0.2 0 0.3 0.1l-0.6 1.1h-14.9q0.1 0 0.1-0.1 0-0.1-0.2-0.4-0.1-0.3-0.1-0.4 0-0.4 0.8-0.2l0.6-1q0.4-0.1 1-0.1 1 0.1 1.1 0.1v-0.5q0.2 0-1.6 0h-0.5q0-0.7-1-0.7l-0.2 0.1v0.6q-0.6 0-1.8 0.3 0.4 0.1 0.8 0.2 0.6 0.3 0.6 0.4-0.9 0.7-1.4 1.2l-1.2-1q-0.2 0-0.5 0.1-0.3 0-0.4 0-0.2 0-0.3-0.1l0.6-0.8h-0.6l0.1-1.1-0.1-0.4h0.1q0.3 0 0.3-0.6 0-0.4-0.3-0.4-0.8 0-1.1 1.1-0.1 0.8-0.2 1.6 0.5 0 1.2 0.3h-0.9q-0.1 0.6-0.5 1h-0.1q0 0.1 0.2 0.4 0.1 0.3 0.1 0.6v0.1h-0.9l0.1-0.6q0.1-1-0.2-2.7-0.2-1.9-0.2-2.7 0-0.3 0.2-0.8 0.1-0.6 0.1-0.8v-0.1l-0.6-0.3v-3.6q0 0-0.4 0-0.3 0-0.3-0.1 0-0.1 0.4-0.1 0.3-0.1 0.3-0.1v-3l1.5-0.6q0.3 0.3 0.5 0.9 0.2 0.5 0.5 0.7 0.5 0.3 1.8 0.3 0.8 0 0.8-0.2 0-0.1-0.3-0.1-0.4-0.2-0.4-0.4-0.2-0.5-0.2-0.6h-0.9l0.3-0.9q-0.2-0.1-0.5-0.4 0.2-0.1 0.8-0.1v-0.6q-0.3-0.1-0.6-0.6l-0.3-0.1q-0.4 0-1 0.3-0.9 0.3-1.1 0.4-0.4-2.1-0.4-2 0-0.5 0.6-1.1 0.5-0.4 1-0.8v-0.9l-1.2 0.1-0.6-0.1q0.4-2.5 0.5-6-0.1 3-0.1-6.1 0-0.9 0.6-7.9l0.5-0.3q1.3 0 3.8 0.3 2.5 0.3 3.7 0.3 0.8 0 2.5-0.1 1.7-0.2 2.6-0.2l-0.7 1.2q0.6-0.1 0.7-0.4 0.1-0.4 0.3-0.8 1.1 0 3.4-0.3 2.2-0.3 3.4-0.3 1.3 0 2.1 0.3v0.6q0.4 0.2 1.2 0.6 0.1-0.3 0.1-0.8l-0.1-0.4h0.6q0.3 0.5 1.1 0.9v1.2q0.9-0.2 0.9-0.3 0-0.1-0.2-0.3 0.6-0.1 1.3-0.2 0.3-0.1 1.3-1h0.2q0.3 0 0.3 0.4 0 0.3 0.7 0.3 0.4 0 0.9-0.2 0.7-0.4 0.9-0.5-0.1 2.6-0.3 7.8h-1-10.3q1.4-1.8 1.4-2.2l-0.2-0.5q1.1-0.3 2.3-0.6 1.8-0.5 1.8-0.9l-0.3-0.6q-0.5 0.1-0.8 0.6h-0.3q-0.2 0-0.4-0.1-0.1-0.2-0.3-0.2h-0.2v0.6q-1.3 0.1-3.9 0-0.1 0.4-0.3 0.8-0.1 0.5-0.6 0.5-0.3 0-0.7-0.4-0.3-0.3-0.6-0.3h-0.2l0.3 0.9q-0.2 0.1-0.6 0.6 0.5 0.1 0.5 0.2l-0.2 0.1q0.3 1.1-0.6 1.1-0.3 0-0.8-0.1-0.7-0.1-1-0.1 0.3-0.2 0.3-1.7 0-1.3-0.1-1.5-0.2-0.1-1-0.2-0.2-0.1-0.3-0.2 0 0.3 0.5 0.6v0.2q0 0.2-0.2 0.7 0.2 0.1 0.2 0.5v0.4q0-0.2 0.2-0.2 0.1 0 0.1 0.5-0.8 1.5-1.6 1.7-0.2 0.1-2.5 0.1-0.4 2.1-0.9 6.3-0.3-0.2-0.9-0.4v-0.6q-0.1 0-0.4 0-1.6 0-1.4 0 0 0-0.2 0.6 0 0.2-0.4 0.4 0.4 0.3 0.4 0.5 0 0.3-0.1 0.3-0.3-0.1-0.7-0.1-0.7 0-0.8 1-0.2 0.1-0.3 0.1-0.3-0.1-0.4-0.1-0.1 0-0.2 0v0.6q-0.7 0.3-0.7 0.3v0.1q0 0.2-0.5 0.8 0 0 1 0 0.6 0 0.2-0.9 0.8 0 1.6-0.2 0.8-0.1 0.8-1 0.5 0 1.5-0.3l0.3-0.8 0.1-0.1q0.4 0 1.2 0.5 0.9 0.5 1.7 0.5 0.9 0 2.5-0.2 1.7-0.2 2.5-0.2l0.3 0.9h-0.1q-0.2 0-0.3 0.3-0.1 0.3-0.2 0.3 0.3 0 0.7 0 0.5-0.1 0.7-0.1 0.2 0 0.4 0.1 0.2 0 0.3 0v0.6q0.3 0.2 0.9 0.6-2.4-0.3-2.1-0.3-0.6 0-0.6 0.1 0 0 0.1 0.1 0.1 0.1-0.1 0.1 1.2 0.3 3.9 1.2v0.6h0.1q0.9 0 0.9-0.4 0-0.3-2.2-1.4 0.7 0 2.1 0.3v0.6q0.5 0.3 0.8 1.5 0.2 0.9 1 0.9 0.1 0 0.1-0.2 0-0.3-0.2-0.8-0.2-0.6-0.2-0.8h2.4v3.6q-0.7 0-0.7-0.5 0-0.5 0.4-1-0.1-0.1-0.2-0.4-0.2-0.2-0.1-0.5h-0.9q0 0 0 1.9v0.5q-1 0-3.5-0.2-2.3-0.2-3.6-0.2l-1 0.1-0.6 0.6q-0.7 0.2-1.7 0.2-0.6 0-1.8-0.1-1.3-0.1-1.8-0.1 0 0 0 2.4 0.1-0.1-0.5-0.1-0.1 0-0.1 0.2v0.1l0.9 0.3v7.5q0.6 0.1 1.9 0.1 1.2 0 3.6-0.2 2.5-0.3 3.7-0.3 1 0 3 0.4 1.9 0.3 3 0.3 0.3 0 0.8-0.6l3.4-0.1 1.4 0.1 0.6 0.9q0.5 0 0.6-0.5 0.2-0.5 0.7-0.5 0.3 0 0.8 0.3 0.5 0.1 0.6 0.1zm-7.8 6.9v0.6h-0.8q-0.9-0.9-0.9-1.2 0-0.1 0.1-0.1 0.4 0 0.4 0.4l0.1 0.3 0.8-0.1q0.2 0 0.3 0.1zm-24.2-15.4q0 0.2-0.5 0.5v-0.4q0-0.3 0.2-0.3 0.3 0 0.3 0.2zm-1.9 0.3l-0.7 0.7q0 0.3 0-0.6 0-0.2 0.3-0.2 0.4 0 0.4 0.1zm3.4 15.3l1 0.1-0.6 0.8q-1.6-0.2-1.6-0.6 0.4-0.3 1.2-0.3zm19.5-38.1h0.6q-0.1-0.1-0.1-0.4 0-0.2-0.5-0.2zm-8.4-1.5h0.6q-0.1 0-0.1-0.4 0-0.2-0.5-0.2zm0.3 0.7q-0.4-0.1-1.1-0.3v1.7h0.8q-0.1-0.1-0.1-0.3 0-0.5 0.4-1.1zm-4.8 6.1q-0.5-0.4-1.1-0.5l0.6 0.6h0.1q0.4 0 0.4-0.1zm22.3 28.1q0 0-0.5-0.3-0.4-0.3-0.6-0.3l0.6 0.6q0.3 0.1 0.4 0.1 0.1 0 0.1-0.1zm-17.4-17.4q-0.3-0.4-0.9-0.5l0.2 0.6 0.3 0.1q0.4 0 0.4-0.2zm-1.9-1.2q0-0.2-0.3-0.2-0.6 0-0.6 0.4 0.2 0.4 0.6 0.5 0.3-0.5 0.3-0.7zm17.9 18.3q-0.3-0.3-0.9-0.3v0.6q0.9 0 0.9-0.3zm-13.8-13.6q-0.3-0.3-0.8-0.4v0.6h0.4q0.4 0 0.4-0.2zm14 14.6q-0.3-0.3-0.8-0.4v0.6h0.4q0.4 0 0.4-0.2zm-17.4-17.2l0.3-0.5q-0.6 0.1-1.3 0l0.3 1.2q0.9 0 0.9-0.3-0.2-0.2-0.2-0.4zm-1.1-0.1q-0.5-0.8-1.4-0.8-0.2 0-0.7 0.1-0.5 0-0.7 0v0.6q1.7 0.3 2.2 0.3 0.6 0 0.6-0.2zm-3.6-0.9q-0.1-0.1-0.3-0.1-0.3 0-0.8 0.2-0.4 0.3-0.4 0.7 0.1 0.1 0.4 0.1 0.3 0 0.7-0.3 0.4-0.3 0.4-0.6zm1.2 2.6l-1.3-0.6 0.3 0.9q0.3 0 0.6-0.1 0.4 0 0.4-0.2zm-4.3 0.6h0.6q-0.1-0.1-0.1-0.4 0-0.2-0.5-0.2zm-0.8 0.6l0.2-1.2h-0.9q0 0.2 0.6 0.6v0.8q-0.1 0.1 0 0.1zm-2.2-0.8l0.4 0.1q-0.5-0.2-0.1-0.4-0.2-0.2-0.9-0.6zm14.1 16.3q0-0.1-1.9-0.5l-0.3 0.6q0 0 1.9 0 0.2 0 0.3-0.1zm-12.7-11q-0.2-0.2-0.8-0.6l0.3 0.6q0.2 0.1 0.4 0.1 0.1 0 0.1-0.1zm5.9 8.5q-0.1-0.2-0.5-0.2-0.3 0-0.3 0.2 0 0.2 0.3 0.5 0.5 0 0.5-0.5zm-3.7-2.8q-0.1-0.1-0.1-0.5 0-0.1-0.2-0.1-0.7 0-0.7 0.2 0.6 0.3 1 0.4zm-2.1-1.5l-0.3-0.9-0.9 0.3v-0.9h-0.9l-0.3 1.2q0.8 0.1 2.4 0.3zm5.7 6.9h0.6q-0.2-0.1-0.2-0.5 0-0.1-0.4-0.1zm-6.3-5.7l0.3-0.6h-1.2q-0.2 0-0.8 0-0.6 0.1-0.6 0.1zm-1.2 2.3q0-0.7-0.3-2-0.4 1.1-0.6 2.7h0.2q0.5 0 0.5-0.1 0-0.1-0.1-0.2l0.1 0.1q0.2 0 0.2-0.5z"/>
</svg>